<svg width="2472" height="1109" viewBox="0 0 2472 1109" fill="none" xmlns="http://www.w3.org/2000/svg">
<rect width="2472" height="1109" rx="20" fill="#1B1C1E"/>
<path d="M629.566 187V137.36H637.59L642.758 153.408C643.257 154.859 643.71 156.309 644.118 157.76C644.526 159.165 644.821 160.253 645.002 161.024C645.229 160.253 645.524 159.165 645.886 157.76C646.249 156.309 646.657 154.836 647.11 153.34L652.006 137.36H660.03V187H654.046V168.98C654.046 166.985 654.114 164.719 654.25 162.18C654.386 159.641 654.568 157.057 654.794 154.428C655.021 151.753 655.248 149.215 655.474 146.812C655.746 144.364 655.973 142.233 656.154 140.42L648.13 165.24H641.67L633.578 140.42C633.805 142.188 634.032 144.251 634.258 146.608C634.485 148.92 634.689 151.391 634.87 154.02C635.052 156.604 635.21 159.188 635.346 161.772C635.482 164.356 635.55 166.759 635.55 168.98V187H629.566ZM685.572 187.544C682.58 187.544 679.996 186.977 677.82 185.844C675.644 184.711 673.944 183.079 672.72 180.948C671.541 178.772 670.952 176.211 670.952 173.264V163.336C670.952 160.344 671.541 157.783 672.72 155.652C673.944 153.521 675.644 151.889 677.82 150.756C679.996 149.623 682.58 149.056 685.572 149.056C688.564 149.056 691.148 149.623 693.324 150.756C695.5 151.889 697.177 153.521 698.356 155.652C699.58 157.783 700.192 160.321 700.192 163.268V173.264C700.192 176.211 699.58 178.772 698.356 180.948C697.177 183.079 695.5 184.711 693.324 185.844C691.148 186.977 688.564 187.544 685.572 187.544ZM685.572 182.104C688.247 182.104 690.332 181.356 691.828 179.86C693.324 178.364 694.072 176.165 694.072 173.264V163.336C694.072 160.435 693.324 158.236 691.828 156.74C690.332 155.244 688.247 154.496 685.572 154.496C682.943 154.496 680.857 155.244 679.316 156.74C677.82 158.236 677.072 160.435 677.072 163.336V173.264C677.072 176.165 677.82 178.364 679.316 179.86C680.857 181.356 682.943 182.104 685.572 182.104ZM724.169 187.68C720.452 187.68 717.437 186.433 715.125 183.94C712.859 181.447 711.725 178.069 711.725 173.808V162.86C711.725 158.553 712.859 155.153 715.125 152.66C717.392 150.167 720.407 148.92 724.169 148.92C727.252 148.92 729.723 149.759 731.581 151.436C733.44 153.113 734.369 155.357 734.369 158.168L733.145 156.74H734.505L734.369 148.24V137.36H740.489V187H734.369V179.86H733.145L734.369 178.432C734.369 181.288 733.44 183.555 731.581 185.232C729.723 186.864 727.252 187.68 724.169 187.68ZM726.209 182.376C728.748 182.376 730.743 181.583 732.193 179.996C733.644 178.409 734.369 176.211 734.369 173.4V163.2C734.369 160.389 733.644 158.191 732.193 156.604C730.743 155.017 728.748 154.224 726.209 154.224C723.625 154.224 721.585 154.995 720.089 156.536C718.593 158.077 717.845 160.299 717.845 163.2V173.4C717.845 176.301 718.593 178.523 720.089 180.064C721.585 181.605 723.625 182.376 726.209 182.376ZM752.499 187V181.424H765.759V155.176H754.199V149.6H771.879V181.424H784.459V187H752.499ZM768.139 142.868C766.643 142.868 765.464 142.483 764.603 141.712C763.741 140.941 763.311 139.899 763.311 138.584C763.311 137.224 763.741 136.159 764.603 135.388C765.464 134.572 766.643 134.164 768.139 134.164C769.635 134.164 770.813 134.572 771.675 135.388C772.536 136.159 772.967 137.224 772.967 138.584C772.967 139.899 772.536 140.941 771.675 141.712C770.813 142.483 769.635 142.868 768.139 142.868ZM802.452 187V158.916H791.572V153.34H802.452V146.88C802.452 143.933 803.382 141.621 805.24 139.944C807.099 138.221 809.66 137.36 812.924 137.36H823.872V142.936H812.924C811.519 142.936 810.431 143.276 809.66 143.956C808.935 144.591 808.572 145.565 808.572 146.88V153.34H823.872V158.916H808.572V187H802.452ZM840.37 199.24L845.878 184.688L832.006 149.6H838.806L847.51 172.72C847.827 173.491 848.122 174.42 848.394 175.508C848.666 176.551 848.892 177.435 849.074 178.16C849.255 177.435 849.482 176.551 849.754 175.508C850.026 174.42 850.298 173.491 850.57 172.72L858.73 149.6H865.326L846.898 199.24H840.37ZM930.213 187.68C927.266 187.68 924.682 187.091 922.461 185.912C920.285 184.733 918.585 183.079 917.361 180.948C916.182 178.772 915.593 176.256 915.593 173.4V163.2C915.593 160.299 916.182 157.783 917.361 155.652C918.585 153.521 920.285 151.867 922.461 150.688C924.682 149.509 927.266 148.92 930.213 148.92C933.159 148.92 935.721 149.509 937.897 150.688C940.118 151.867 941.818 153.521 942.997 155.652C944.221 157.783 944.833 160.299 944.833 163.2V169.796H921.577V173.4C921.577 176.347 922.325 178.613 923.821 180.2C925.317 181.741 927.447 182.512 930.213 182.512C932.57 182.512 934.474 182.104 935.925 181.288C937.375 180.427 938.259 179.157 938.577 177.48H944.697C944.289 180.608 942.747 183.101 940.073 184.96C937.443 186.773 934.157 187.68 930.213 187.68ZM938.849 165.716V163.2C938.849 160.253 938.101 157.987 936.605 156.4C935.154 154.813 933.023 154.02 930.213 154.02C927.447 154.02 925.317 154.813 923.821 156.4C922.325 157.987 921.577 160.253 921.577 163.2V165.172H939.325L938.849 165.716ZM968.81 187.68C965.093 187.68 962.078 186.433 959.766 183.94C957.499 181.447 956.366 178.069 956.366 173.808V162.86C956.366 158.553 957.499 155.153 959.766 152.66C962.033 150.167 965.047 148.92 968.81 148.92C971.893 148.92 974.363 149.759 976.222 151.436C978.081 153.113 979.01 155.357 979.01 158.168L977.786 156.74H979.146L979.01 148.24V137.36H985.13V187H979.01V179.86H977.786L979.01 178.432C979.01 181.288 978.081 183.555 976.222 185.232C974.363 186.864 971.893 187.68 968.81 187.68ZM970.85 182.376C973.389 182.376 975.383 181.583 976.834 179.996C978.285 178.409 979.01 176.211 979.01 173.4V163.2C979.01 160.389 978.285 158.191 976.834 156.604C975.383 155.017 973.389 154.224 970.85 154.224C968.266 154.224 966.226 154.995 964.73 156.536C963.234 158.077 962.486 160.299 962.486 163.2V173.4C962.486 176.301 963.234 178.523 964.73 180.064C966.226 181.605 968.266 182.376 970.85 182.376ZM997.139 187V181.424H1010.4V155.176H998.839V149.6H1016.52V181.424H1029.1V187H997.139ZM1012.78 142.868C1011.28 142.868 1010.1 142.483 1009.24 141.712C1008.38 140.941 1007.95 139.899 1007.95 138.584C1007.95 137.224 1008.38 136.159 1009.24 135.388C1010.1 134.572 1011.28 134.164 1012.78 134.164C1014.28 134.164 1015.45 134.572 1016.32 135.388C1017.18 136.159 1017.61 137.224 1017.61 138.584C1017.61 139.899 1017.18 140.941 1016.32 141.712C1015.45 142.483 1014.28 142.868 1012.78 142.868ZM1056.61 187C1053.39 187 1050.88 186.139 1049.06 184.416C1047.3 182.693 1046.41 180.268 1046.41 177.14V155.176H1035.87V149.6H1046.41V139.06H1052.53V149.6H1067.49V155.176H1052.53V177.14C1052.53 179.996 1053.89 181.424 1056.61 181.424H1066.81V187H1056.61ZM1093.31 187.544C1090.31 187.544 1087.73 186.977 1085.55 185.844C1083.38 184.711 1081.68 183.079 1080.45 180.948C1079.28 178.772 1078.69 176.211 1078.69 173.264V163.336C1078.69 160.344 1079.28 157.783 1080.45 155.652C1081.68 153.521 1083.38 151.889 1085.55 150.756C1087.73 149.623 1090.31 149.056 1093.31 149.056C1096.3 149.056 1098.88 149.623 1101.06 150.756C1103.23 151.889 1104.91 153.521 1106.09 155.652C1107.31 157.783 1107.93 160.321 1107.93 163.268V173.264C1107.93 176.211 1107.31 178.772 1106.09 180.948C1104.91 183.079 1103.23 184.711 1101.06 185.844C1098.88 186.977 1096.3 187.544 1093.31 187.544ZM1093.31 182.104C1095.98 182.104 1098.07 181.356 1099.56 179.86C1101.06 178.364 1101.81 176.165 1101.81 173.264V163.336C1101.81 160.435 1101.06 158.236 1099.56 156.74C1098.07 155.244 1095.98 154.496 1093.31 154.496C1090.68 154.496 1088.59 155.244 1087.05 156.74C1085.55 158.236 1084.81 160.435 1084.81 163.336V173.264C1084.81 176.165 1085.55 178.364 1087.05 179.86C1088.59 181.356 1090.68 182.104 1093.31 182.104ZM1121.23 187V149.6H1127.21V156.74H1128.64L1126.67 161.16C1126.67 157.125 1127.53 154.088 1129.25 152.048C1131.02 149.963 1133.63 148.92 1137.07 148.92C1141.02 148.92 1144.14 150.167 1146.46 152.66C1148.81 155.108 1149.99 158.44 1149.99 162.656V164.9H1143.87V163.2C1143.87 160.253 1143.15 158.009 1141.7 156.468C1140.29 154.881 1138.27 154.088 1135.64 154.088C1133.06 154.088 1131.02 154.881 1129.52 156.468C1128.07 158.055 1127.35 160.299 1127.35 163.2V187H1121.23ZM1175.13 187.68C1171.86 187.68 1169.05 187.136 1166.69 186.048C1164.38 184.96 1162.59 183.396 1161.32 181.356C1160.05 179.316 1159.39 176.891 1159.35 174.08H1165.47C1165.47 176.573 1166.31 178.545 1167.99 179.996C1169.71 181.447 1172.09 182.172 1175.13 182.172C1177.98 182.172 1180.2 181.469 1181.79 180.064C1183.42 178.659 1184.24 176.709 1184.24 174.216C1184.24 172.221 1183.69 170.476 1182.61 168.98C1181.56 167.484 1180.04 166.441 1178.05 165.852L1171.32 163.744C1167.92 162.701 1165.29 160.956 1163.43 158.508C1161.62 156.06 1160.71 153.181 1160.71 149.872C1160.71 147.197 1161.3 144.885 1162.48 142.936C1163.7 140.941 1165.4 139.4 1167.58 138.312C1169.75 137.179 1172.31 136.612 1175.26 136.612C1179.61 136.612 1183.1 137.836 1185.73 140.284C1188.36 142.687 1189.7 145.905 1189.75 149.94H1183.63C1183.63 147.492 1182.88 145.588 1181.38 144.228C1179.93 142.823 1177.87 142.12 1175.19 142.12C1172.56 142.12 1170.5 142.755 1169.01 144.024C1167.55 145.293 1166.83 147.061 1166.83 149.328C1166.83 151.368 1167.37 153.136 1168.46 154.632C1169.55 156.128 1171.11 157.193 1173.15 157.828L1179.95 160.004C1183.26 161.047 1185.82 162.815 1187.64 165.308C1189.45 167.801 1190.36 170.725 1190.36 174.08C1190.36 176.8 1189.72 179.18 1188.45 181.22C1187.18 183.26 1185.39 184.847 1183.08 185.98C1180.81 187.113 1178.16 187.68 1175.13 187.68ZM1219.71 187C1216.49 187 1213.97 186.139 1212.16 184.416C1210.39 182.693 1209.51 180.268 1209.51 177.14V155.176H1198.97V149.6H1209.51V139.06H1215.63V149.6H1230.59V155.176H1215.63V177.14C1215.63 179.996 1216.99 181.424 1219.71 181.424H1229.91V187H1219.71ZM1253.14 187.68C1249.19 187.68 1246.09 186.683 1243.82 184.688C1241.55 182.648 1240.42 179.905 1240.42 176.46C1240.42 172.969 1241.55 170.227 1243.82 168.232C1246.09 166.237 1249.15 165.24 1253 165.24H1264.56V161.5C1264.56 159.188 1263.86 157.42 1262.45 156.196C1261.09 154.927 1259.14 154.292 1256.6 154.292C1254.38 154.292 1252.52 154.768 1251.03 155.72C1249.53 156.627 1248.67 157.873 1248.44 159.46H1242.32C1242.73 156.241 1244.25 153.68 1246.88 151.776C1249.51 149.872 1252.8 148.92 1256.74 148.92C1261.05 148.92 1264.45 150.031 1266.94 152.252C1269.43 154.473 1270.68 157.488 1270.68 161.296V187H1264.7V179.86H1263.68L1264.7 178.84C1264.7 181.56 1263.63 183.713 1261.5 185.3C1259.41 186.887 1256.63 187.68 1253.14 187.68ZM1254.63 182.852C1257.53 182.852 1259.91 182.127 1261.77 180.676C1263.63 179.225 1264.56 177.367 1264.56 175.1V169.796H1253.14C1251.1 169.796 1249.49 170.363 1248.31 171.496C1247.13 172.629 1246.54 174.171 1246.54 176.12C1246.54 178.205 1247.24 179.86 1248.65 181.084C1250.1 182.263 1252.09 182.852 1254.63 182.852ZM1301.25 187C1298.03 187 1295.52 186.139 1293.71 184.416C1291.94 182.693 1291.05 180.268 1291.05 177.14V155.176H1280.51V149.6H1291.05V139.06H1297.17V149.6H1312.13V155.176H1297.17V177.14C1297.17 179.996 1298.53 181.424 1301.25 181.424H1311.45V187H1301.25ZM1337.95 187.68C1335 187.68 1332.42 187.091 1330.19 185.912C1328.02 184.733 1326.32 183.079 1325.09 180.948C1323.92 178.772 1323.33 176.256 1323.33 173.4V163.2C1323.33 160.299 1323.92 157.783 1325.09 155.652C1326.32 153.521 1328.02 151.867 1330.19 150.688C1332.42 149.509 1335 148.92 1337.95 148.92C1340.89 148.92 1343.45 149.509 1345.63 150.688C1347.85 151.867 1349.55 153.521 1350.73 155.652C1351.95 157.783 1352.57 160.299 1352.57 163.2V169.796H1329.31V173.4C1329.31 176.347 1330.06 178.613 1331.55 180.2C1333.05 181.741 1335.18 182.512 1337.95 182.512C1340.3 182.512 1342.21 182.104 1343.66 181.288C1345.11 180.427 1345.99 179.157 1346.31 177.48H1352.43C1352.02 180.608 1350.48 183.101 1347.81 184.96C1345.18 186.773 1341.89 187.68 1337.95 187.68ZM1346.58 165.716V163.2C1346.58 160.253 1345.83 157.987 1344.34 156.4C1342.89 154.813 1340.76 154.02 1337.95 154.02C1335.18 154.02 1333.05 154.813 1331.55 156.4C1330.06 157.987 1329.31 160.253 1329.31 163.2V165.172H1347.06L1346.58 165.716ZM1416.23 187.68C1412.29 187.68 1409.18 186.683 1406.91 184.688C1404.65 182.648 1403.51 179.905 1403.51 176.46C1403.51 172.969 1404.65 170.227 1406.91 168.232C1409.18 166.237 1412.24 165.24 1416.09 165.24H1427.65V161.5C1427.65 159.188 1426.95 157.42 1425.55 156.196C1424.19 154.927 1422.24 154.292 1419.7 154.292C1417.48 154.292 1415.62 154.768 1414.12 155.72C1412.63 156.627 1411.76 157.873 1411.54 159.46H1405.42C1405.83 156.241 1407.34 153.68 1409.97 151.776C1412.6 149.872 1415.89 148.92 1419.83 148.92C1424.14 148.92 1427.54 150.031 1430.03 152.252C1432.53 154.473 1433.77 157.488 1433.77 161.296V187H1427.79V179.86H1426.77L1427.79 178.84C1427.79 181.56 1426.72 183.713 1424.59 185.3C1422.51 186.887 1419.72 187.68 1416.23 187.68ZM1417.73 182.852C1420.63 182.852 1423.01 182.127 1424.87 180.676C1426.72 179.225 1427.65 177.367 1427.65 175.1V169.796H1416.23C1414.19 169.796 1412.58 170.363 1411.4 171.496C1410.22 172.629 1409.63 174.171 1409.63 176.12C1409.63 178.205 1410.34 179.86 1411.74 181.084C1413.19 182.263 1415.19 182.852 1417.73 182.852ZM1446.12 187V149.6H1452.24V156.74H1453.54L1452.24 158.168C1452.24 155.221 1453.13 152.955 1454.9 151.368C1456.66 149.736 1459.11 148.92 1462.24 148.92C1466 148.92 1468.99 150.076 1471.22 152.388C1473.44 154.7 1474.55 157.851 1474.55 161.84V187H1468.43V162.52C1468.43 159.845 1467.7 157.805 1466.25 156.4C1464.85 154.949 1462.92 154.224 1460.47 154.224C1457.93 154.224 1455.92 154.995 1454.42 156.536C1452.97 158.077 1452.24 160.299 1452.24 163.2V187H1446.12ZM1498.86 187.68C1495.15 187.68 1492.13 186.433 1489.82 183.94C1487.55 181.447 1486.42 178.069 1486.42 173.808V162.86C1486.42 158.553 1487.55 155.153 1489.82 152.66C1492.09 150.167 1495.1 148.92 1498.86 148.92C1501.95 148.92 1504.42 149.759 1506.28 151.436C1508.14 153.113 1509.06 155.357 1509.06 158.168L1507.84 156.74H1509.2L1509.06 148.24V137.36H1515.18V187H1509.06V179.86H1507.84L1509.06 178.432C1509.06 181.288 1508.14 183.555 1506.28 185.232C1504.42 186.864 1501.95 187.68 1498.86 187.68ZM1500.9 182.376C1503.44 182.376 1505.44 181.583 1506.89 179.996C1508.34 178.409 1509.06 176.211 1509.06 173.4V163.2C1509.06 160.389 1508.34 158.191 1506.89 156.604C1505.44 155.017 1503.44 154.224 1500.9 154.224C1498.32 154.224 1496.28 154.995 1494.78 156.536C1493.29 158.077 1492.54 160.299 1492.54 163.2V173.4C1492.54 176.301 1493.29 178.523 1494.78 180.064C1496.28 181.605 1498.32 182.376 1500.9 182.376ZM1568.44 187V137.36H1574.56V149.6V156.74H1575.86L1574.56 158.168C1574.56 155.221 1575.45 152.955 1577.22 151.368C1578.98 149.736 1581.43 148.92 1584.56 148.92C1588.32 148.92 1591.31 150.076 1593.54 152.388C1595.76 154.7 1596.87 157.851 1596.87 161.84V187H1590.75V162.52C1590.75 159.845 1590.02 157.783 1588.57 156.332C1587.17 154.836 1585.24 154.088 1582.79 154.088C1580.25 154.088 1578.24 154.881 1576.74 156.468C1575.29 158.055 1574.56 160.299 1574.56 163.2V187H1568.44ZM1608.74 187V181.424H1622V155.176H1610.44V149.6H1628.12V181.424H1640.7V187H1608.74ZM1624.38 142.868C1622.88 142.868 1621.71 142.483 1620.84 141.712C1619.98 140.941 1619.55 139.899 1619.55 138.584C1619.55 137.224 1619.98 136.159 1620.84 135.388C1621.71 134.572 1622.88 134.164 1624.38 134.164C1625.88 134.164 1627.06 134.572 1627.92 135.388C1628.78 136.159 1629.21 137.224 1629.21 138.584C1629.21 139.899 1628.78 140.941 1627.92 141.712C1627.06 142.483 1625.88 142.868 1624.38 142.868ZM1662.98 187.544C1660.44 187.544 1658.22 187.159 1656.31 186.388C1654.46 185.572 1652.96 184.439 1651.83 182.988C1650.74 181.537 1650.08 179.815 1649.85 177.82H1655.97C1656.25 179.135 1656.97 180.177 1658.15 180.948C1659.37 181.719 1660.98 182.104 1662.98 182.104H1665.83C1668.24 182.104 1670.03 181.628 1671.21 180.676C1672.39 179.679 1672.97 178.364 1672.97 176.732C1672.97 175.145 1672.43 173.899 1671.34 172.992C1670.3 172.04 1668.74 171.405 1666.65 171.088L1661.62 170.272C1657.95 169.637 1655.2 168.504 1653.39 166.872C1651.62 165.195 1650.74 162.769 1650.74 159.596C1650.74 156.241 1651.8 153.657 1653.93 151.844C1656.07 149.985 1659.26 149.056 1663.52 149.056H1666.11C1669.69 149.056 1672.57 149.895 1674.74 151.572C1676.92 153.249 1678.23 155.516 1678.69 158.372H1672.57C1672.29 157.193 1671.61 156.264 1670.53 155.584C1669.44 154.859 1667.97 154.496 1666.11 154.496H1663.52C1661.21 154.496 1659.51 154.927 1658.42 155.788C1657.38 156.649 1656.86 157.941 1656.86 159.664C1656.86 161.205 1657.31 162.339 1658.22 163.064C1659.13 163.789 1660.55 164.311 1662.5 164.628L1667.53 165.444C1671.57 166.079 1674.49 167.257 1676.31 168.98C1678.17 170.703 1679.09 173.196 1679.09 176.46C1679.09 179.905 1677.98 182.625 1675.76 184.62C1673.59 186.569 1670.28 187.544 1665.83 187.544H1662.98ZM1708.99 187C1705.77 187 1703.25 186.139 1701.44 184.416C1699.67 182.693 1698.79 180.268 1698.79 177.14V155.176H1688.25V149.6H1698.79V139.06H1704.91V149.6H1719.87V155.176H1704.91V177.14C1704.91 179.996 1706.27 181.424 1708.99 181.424H1719.19V187H1708.99ZM1745.68 187.544C1742.69 187.544 1740.11 186.977 1737.93 185.844C1735.75 184.711 1734.05 183.079 1732.83 180.948C1731.65 178.772 1731.06 176.211 1731.06 173.264V163.336C1731.06 160.344 1731.65 157.783 1732.83 155.652C1734.05 153.521 1735.75 151.889 1737.93 150.756C1740.11 149.623 1742.69 149.056 1745.68 149.056C1748.67 149.056 1751.26 149.623 1753.43 150.756C1755.61 151.889 1757.29 153.521 1758.47 155.652C1759.69 157.783 1760.3 160.321 1760.3 163.268V173.264C1760.3 176.211 1759.69 178.772 1758.47 180.948C1757.29 183.079 1755.61 184.711 1753.43 185.844C1751.26 186.977 1748.67 187.544 1745.68 187.544ZM1745.68 182.104C1748.36 182.104 1750.44 181.356 1751.94 179.86C1753.43 178.364 1754.18 176.165 1754.18 173.264V163.336C1754.18 160.435 1753.43 158.236 1751.94 156.74C1750.44 155.244 1748.36 154.496 1745.68 154.496C1743.05 154.496 1740.97 155.244 1739.43 156.74C1737.93 158.236 1737.18 160.435 1737.18 163.336V173.264C1737.18 176.165 1737.93 178.364 1739.43 179.86C1740.97 181.356 1743.05 182.104 1745.68 182.104ZM1773.6 187V149.6H1779.59V156.74H1781.01L1779.04 161.16C1779.04 157.125 1779.9 154.088 1781.63 152.048C1783.39 149.963 1786 148.92 1789.45 148.92C1793.39 148.92 1796.52 150.167 1798.83 152.66C1801.19 155.108 1802.37 158.44 1802.37 162.656V164.9H1796.25V163.2C1796.25 160.253 1795.52 158.009 1794.07 156.468C1792.67 154.881 1790.65 154.088 1788.02 154.088C1785.43 154.088 1783.39 154.881 1781.9 156.468C1780.45 158.055 1779.72 160.299 1779.72 163.2V187H1773.6ZM1818.93 199.24L1824.44 184.688L1810.57 149.6H1817.37L1826.07 172.72C1826.39 173.491 1826.68 174.42 1826.96 175.508C1827.23 176.551 1827.45 177.435 1827.64 178.16C1827.82 177.435 1828.04 176.551 1828.32 175.508C1828.59 174.42 1828.86 173.491 1829.13 172.72L1837.29 149.6H1843.89L1825.46 199.24H1818.93Z" fill="#6C6E72"/>
<path d="M1427.2 467.5C1425 467.5 1423.07 467.083 1421.4 466.25C1419.77 465.417 1418.5 464.217 1417.6 462.65C1416.7 461.05 1416.25 459.167 1416.25 457V449.5C1416.25 447.3 1416.7 445.417 1417.6 443.85C1418.5 442.283 1419.77 441.083 1421.4 440.25C1423.07 439.417 1425 439 1427.2 439C1430.37 439 1432.92 439.85 1434.85 441.55C1436.78 443.25 1437.8 445.567 1437.9 448.5H1433.4C1433.3 446.733 1432.7 445.383 1431.6 444.45C1430.53 443.483 1429.07 443 1427.2 443C1425.23 443 1423.67 443.567 1422.5 444.7C1421.33 445.8 1420.75 447.383 1420.75 449.45V457C1420.75 459.067 1421.33 460.667 1422.5 461.8C1423.67 462.933 1425.23 463.5 1427.2 463.5C1429.07 463.5 1430.53 463.017 1431.6 462.05C1432.7 461.083 1433.3 459.733 1433.4 458H1437.9C1437.8 460.933 1436.78 463.25 1434.85 464.95C1432.92 466.65 1430.37 467.5 1427.2 467.5ZM1456.98 467.4C1454.78 467.4 1452.88 466.983 1451.28 466.15C1449.68 465.317 1448.43 464.117 1447.53 462.55C1446.66 460.95 1446.23 459.067 1446.23 456.9V449.6C1446.23 447.4 1446.66 445.517 1447.53 443.95C1448.43 442.383 1449.68 441.183 1451.28 440.35C1452.88 439.517 1454.78 439.1 1456.98 439.1C1459.18 439.1 1461.08 439.517 1462.68 440.35C1464.28 441.183 1465.51 442.383 1466.38 443.95C1467.28 445.517 1467.73 447.383 1467.73 449.55V456.9C1467.73 459.067 1467.28 460.95 1466.38 462.55C1465.51 464.117 1464.28 465.317 1462.68 466.15C1461.08 466.983 1459.18 467.4 1456.98 467.4ZM1456.98 463.4C1458.95 463.4 1460.48 462.85 1461.58 461.75C1462.68 460.65 1463.23 459.033 1463.23 456.9V449.6C1463.23 447.467 1462.68 445.85 1461.58 444.75C1460.48 443.65 1458.95 443.1 1456.98 443.1C1455.05 443.1 1453.51 443.65 1452.38 444.75C1451.28 445.85 1450.73 447.467 1450.73 449.6V456.9C1450.73 459.033 1451.28 460.65 1452.38 461.75C1453.51 462.85 1455.05 463.4 1456.98 463.4ZM1476.56 467V439.5H1481.06V444.75H1482.01L1481.06 445.8C1481.06 443.633 1481.71 441.967 1483.01 440.8C1484.31 439.6 1486.11 439 1488.41 439C1491.18 439 1493.38 439.85 1495.01 441.55C1496.64 443.25 1497.46 445.567 1497.46 448.5V467H1492.96V449C1492.96 447.033 1492.43 445.533 1491.36 444.5C1490.33 443.433 1488.91 442.9 1487.11 442.9C1485.24 442.9 1483.76 443.467 1482.66 444.6C1481.59 445.733 1481.06 447.367 1481.06 449.5V467H1476.56ZM1516.09 467.4C1514.22 467.4 1512.59 467.117 1511.19 466.55C1509.82 465.95 1508.72 465.117 1507.89 464.05C1507.09 462.983 1506.61 461.717 1506.44 460.25H1510.94C1511.14 461.217 1511.67 461.983 1512.54 462.55C1513.44 463.117 1514.62 463.4 1516.09 463.4H1518.19C1519.96 463.4 1521.27 463.05 1522.14 462.35C1523.01 461.617 1523.44 460.65 1523.44 459.45C1523.44 458.283 1523.04 457.367 1522.24 456.7C1521.47 456 1520.32 455.533 1518.79 455.3L1515.09 454.7C1512.39 454.233 1510.37 453.4 1509.04 452.2C1507.74 450.967 1507.09 449.183 1507.09 446.85C1507.09 444.383 1507.87 442.483 1509.44 441.15C1511.01 439.783 1513.36 439.1 1516.49 439.1H1518.39C1521.02 439.1 1523.14 439.717 1524.74 440.95C1526.34 442.183 1527.31 443.85 1527.64 445.95H1523.14C1522.94 445.083 1522.44 444.4 1521.64 443.9C1520.84 443.367 1519.76 443.1 1518.39 443.1H1516.49C1514.79 443.1 1513.54 443.417 1512.74 444.05C1511.97 444.683 1511.59 445.633 1511.59 446.9C1511.59 448.033 1511.92 448.867 1512.59 449.4C1513.26 449.933 1514.31 450.317 1515.74 450.55L1519.44 451.15C1522.41 451.617 1524.56 452.483 1525.89 453.75C1527.26 455.017 1527.94 456.85 1527.94 459.25C1527.94 461.783 1527.12 463.783 1525.49 465.25C1523.89 466.683 1521.46 467.4 1518.19 467.4H1516.09ZM1549.92 467C1547.56 467 1545.71 466.367 1544.37 465.1C1543.07 463.833 1542.42 462.05 1542.42 459.75V443.6H1534.67V439.5H1542.42V431.75H1546.92V439.5H1557.92V443.6H1546.92V459.75C1546.92 461.85 1547.92 462.9 1549.92 462.9H1557.42V467H1549.92ZM1816.75 446.5C1815.51 446.5 1814.51 446.167 1813.75 445.5C1812.98 444.8 1812.6 443.883 1812.6 442.75C1812.6 441.617 1812.98 440.717 1813.75 440.05C1814.51 439.35 1815.51 439 1816.75 439C1818.01 439 1819.01 439.35 1819.75 440.05C1820.51 440.717 1820.9 441.617 1820.9 442.75C1820.9 443.883 1820.51 444.8 1819.75 445.5C1819.01 446.167 1818.01 446.5 1816.75 446.5ZM1816.75 467.5C1815.51 467.5 1814.51 467.167 1813.75 466.5C1812.98 465.8 1812.6 464.883 1812.6 463.75C1812.6 462.617 1812.98 461.717 1813.75 461.05C1814.51 460.35 1815.51 460 1816.75 460C1818.01 460 1819.01 460.35 1819.75 461.05C1820.51 461.717 1820.9 462.617 1820.9 463.75C1820.9 464.883 1820.51 465.8 1819.75 466.5C1819.01 467.167 1818.01 467.5 1816.75 467.5ZM1866.71 467V430.5H1887.71V434.6H1871.16V445.9H1885.96V449.95H1871.16V462.9H1887.71V467H1866.71ZM1905.09 467.5C1902.35 467.5 1900.14 466.583 1898.44 464.75C1896.77 462.917 1895.94 460.433 1895.94 457.3V449.25C1895.94 446.083 1896.77 443.583 1898.44 441.75C1900.1 439.917 1902.32 439 1905.09 439C1907.35 439 1909.17 439.617 1910.54 440.85C1911.9 442.083 1912.59 443.733 1912.59 445.8L1911.69 444.75H1912.69L1912.59 438.5V430.5H1917.09V467H1912.59V461.75H1911.69L1912.59 460.7C1912.59 462.8 1911.9 464.467 1910.54 465.7C1909.17 466.9 1907.35 467.5 1905.09 467.5ZM1906.59 463.6C1908.45 463.6 1909.92 463.017 1910.99 461.85C1912.05 460.683 1912.59 459.067 1912.59 457V449.5C1912.59 447.433 1912.05 445.817 1910.99 444.65C1909.92 443.483 1908.45 442.9 1906.59 442.9C1904.69 442.9 1903.19 443.467 1902.09 444.6C1900.99 445.733 1900.44 447.367 1900.44 449.5V457C1900.44 459.133 1900.99 460.767 1902.09 461.9C1903.19 463.033 1904.69 463.6 1906.59 463.6ZM1925.92 467V462.9H1935.67V443.6H1927.17V439.5H1940.17V462.9H1949.42V467H1925.92ZM1937.42 434.55C1936.32 434.55 1935.45 434.267 1934.82 433.7C1934.18 433.133 1933.87 432.367 1933.87 431.4C1933.87 430.4 1934.18 429.617 1934.82 429.05C1935.45 428.45 1936.32 428.15 1937.42 428.15C1938.52 428.15 1939.38 428.45 1940.02 429.05C1940.65 429.617 1940.97 430.4 1940.97 431.4C1940.97 432.367 1940.65 433.133 1940.02 433.7C1939.38 434.267 1938.52 434.55 1937.42 434.55ZM1969.65 467C1967.28 467 1965.43 466.367 1964.1 465.1C1962.8 463.833 1962.15 462.05 1962.15 459.75V443.6H1954.4V439.5H1962.15V431.75H1966.65V439.5H1977.65V443.6H1966.65V459.75C1966.65 461.85 1967.65 462.9 1969.65 462.9H1977.15V467H1969.65ZM1996.63 467.4C1994.43 467.4 1992.53 466.983 1990.93 466.15C1989.33 465.317 1988.08 464.117 1987.18 462.55C1986.31 460.95 1985.88 459.067 1985.88 456.9V449.6C1985.88 447.4 1986.31 445.517 1987.18 443.95C1988.08 442.383 1989.33 441.183 1990.93 440.35C1992.53 439.517 1994.43 439.1 1996.63 439.1C1998.83 439.1 2000.73 439.517 2002.33 440.35C2003.93 441.183 2005.16 442.383 2006.03 443.95C2006.93 445.517 2007.38 447.383 2007.38 449.55V456.9C2007.38 459.067 2006.93 460.95 2006.03 462.55C2005.16 464.117 2003.93 465.317 2002.33 466.15C2000.73 466.983 1998.83 467.4 1996.63 467.4ZM1996.63 463.4C1998.6 463.4 2000.13 462.85 2001.23 461.75C2002.33 460.65 2002.88 459.033 2002.88 456.9V449.6C2002.88 447.467 2002.33 445.85 2001.23 444.75C2000.13 443.65 1998.6 443.1 1996.63 443.1C1994.7 443.1 1993.16 443.65 1992.03 444.75C1990.93 445.85 1990.38 447.467 1990.38 449.6V456.9C1990.38 459.033 1990.93 460.65 1992.03 461.75C1993.16 462.85 1994.7 463.4 1996.63 463.4ZM2017.16 467V439.5H2021.56V444.75H2022.61L2021.16 448C2021.16 445.033 2021.79 442.8 2023.06 441.3C2024.36 439.767 2026.28 439 2028.81 439C2031.71 439 2034.01 439.917 2035.71 441.75C2037.44 443.55 2038.31 446 2038.31 449.1V450.75H2033.81V449.5C2033.81 447.333 2033.28 445.683 2032.21 444.55C2031.18 443.383 2029.69 442.8 2027.76 442.8C2025.86 442.8 2024.36 443.383 2023.26 444.55C2022.19 445.717 2021.66 447.367 2021.66 449.5V467H2017.16ZM2056.79 467.5C2054.39 467.5 2052.32 467.1 2050.59 466.3C2048.89 465.5 2047.57 464.35 2046.64 462.85C2045.71 461.35 2045.22 459.567 2045.19 457.5H2049.69C2049.69 459.333 2050.31 460.783 2051.54 461.85C2052.81 462.917 2054.56 463.45 2056.79 463.45C2058.89 463.45 2060.52 462.933 2061.69 461.9C2062.89 460.867 2063.49 459.433 2063.49 457.6C2063.49 456.133 2063.09 454.85 2062.29 453.75C2061.52 452.65 2060.41 451.883 2058.94 451.45L2053.99 449.9C2051.49 449.133 2049.56 447.85 2048.19 446.05C2046.86 444.25 2046.19 442.133 2046.19 439.7C2046.19 437.733 2046.62 436.033 2047.49 434.6C2048.39 433.133 2049.64 432 2051.24 431.2C2052.84 430.367 2054.72 429.95 2056.89 429.95C2060.09 429.95 2062.66 430.85 2064.59 432.65C2066.52 434.417 2067.51 436.783 2067.54 439.75H2063.04C2063.04 437.95 2062.49 436.55 2061.39 435.55C2060.32 434.517 2058.81 434 2056.84 434C2054.91 434 2053.39 434.467 2052.29 435.4C2051.22 436.333 2050.69 437.633 2050.69 439.3C2050.69 440.8 2051.09 442.1 2051.89 443.2C2052.69 444.3 2053.84 445.083 2055.34 445.55L2060.34 447.15C2062.77 447.917 2064.66 449.217 2065.99 451.05C2067.32 452.883 2067.99 455.033 2067.99 457.5C2067.99 459.5 2067.52 461.25 2066.59 462.75C2065.66 464.25 2064.34 465.417 2062.64 466.25C2060.97 467.083 2059.02 467.5 2056.79 467.5ZM2089.57 467C2087.2 467 2085.35 466.367 2084.02 465.1C2082.72 463.833 2082.07 462.05 2082.07 459.75V443.6H2074.32V439.5H2082.07V431.75H2086.57V439.5H2097.57V443.6H2086.57V459.75C2086.57 461.85 2087.57 462.9 2089.57 462.9H2097.07V467H2089.57ZM2114.15 467.5C2111.25 467.5 2108.97 466.767 2107.3 465.3C2105.63 463.8 2104.8 461.783 2104.8 459.25C2104.8 456.683 2105.63 454.667 2107.3 453.2C2108.97 451.733 2111.22 451 2114.05 451H2122.55V448.25C2122.55 446.55 2122.03 445.25 2121 444.35C2120 443.417 2118.57 442.95 2116.7 442.95C2115.07 442.95 2113.7 443.3 2112.6 444C2111.5 444.667 2110.87 445.583 2110.7 446.75H2106.2C2106.5 444.383 2107.62 442.5 2109.55 441.1C2111.48 439.7 2113.9 439 2116.8 439C2119.97 439 2122.47 439.817 2124.3 441.45C2126.13 443.083 2127.05 445.3 2127.05 448.1V467H2122.65V461.75H2121.9L2122.65 461C2122.65 463 2121.87 464.583 2120.3 465.75C2118.77 466.917 2116.72 467.5 2114.15 467.5ZM2115.25 463.95C2117.38 463.95 2119.13 463.417 2120.5 462.35C2121.87 461.283 2122.55 459.917 2122.55 458.25V454.35H2114.15C2112.65 454.35 2111.47 454.767 2110.6 455.6C2109.73 456.433 2109.3 457.567 2109.3 459C2109.3 460.533 2109.82 461.75 2110.85 462.65C2111.92 463.517 2113.38 463.95 2115.25 463.95ZM2149.53 467C2147.16 467 2145.31 466.367 2143.98 465.1C2142.68 463.833 2142.03 462.05 2142.03 459.75V443.6H2134.28V439.5H2142.03V431.75H2146.53V439.5H2157.53V443.6H2146.53V459.75C2146.53 461.85 2147.53 462.9 2149.53 462.9H2157.03V467H2149.53ZM2176.51 467.5C2174.35 467.5 2172.45 467.067 2170.81 466.2C2169.21 465.333 2167.96 464.117 2167.06 462.55C2166.2 460.95 2165.76 459.1 2165.76 457V449.5C2165.76 447.367 2166.2 445.517 2167.06 443.95C2167.96 442.383 2169.21 441.167 2170.81 440.3C2172.45 439.433 2174.35 439 2176.51 439C2178.68 439 2180.56 439.433 2182.16 440.3C2183.8 441.167 2185.05 442.383 2185.91 443.95C2186.81 445.517 2187.26 447.367 2187.26 449.5V454.35H2170.16V457C2170.16 459.167 2170.71 460.833 2171.81 462C2172.91 463.133 2174.48 463.7 2176.51 463.7C2178.25 463.7 2179.65 463.4 2180.71 462.8C2181.78 462.167 2182.43 461.233 2182.66 460H2187.16C2186.86 462.3 2185.73 464.133 2183.76 465.5C2181.83 466.833 2179.41 467.5 2176.51 467.5ZM2182.86 451.35V449.5C2182.86 447.333 2182.31 445.667 2181.21 444.5C2180.15 443.333 2178.58 442.75 2176.51 442.75C2174.48 442.75 2172.91 443.333 2171.81 444.5C2170.71 445.667 2170.16 447.333 2170.16 449.5V450.95H2183.21L2182.86 451.35ZM2201.74 472.5V425.5H2213.99V429.5H2206.24V468.5H2213.99V472.5H2201.74ZM2228.97 472.5V468.5H2236.72V429.5H2228.97V425.5H2241.22V472.5H2228.97ZM2285.68 446.5V442.5H2307.18V446.5H2285.68ZM2285.68 458.5V454.5H2307.18V458.5H2285.68ZM1482.21 548.5V501.5H1494.46V505.5H1486.71V544.5H1494.46V548.5H1482.21ZM1550.17 521.5L1549.57 511V506.5H1554.42V511L1553.87 521.5H1550.17ZM1540.02 521.5L1539.42 511V506.5H1544.27V511L1543.72 521.5H1540.02ZM1572.9 543V522.35H1564.9V518.25H1572.9V513.5C1572.9 511.333 1573.59 509.633 1574.95 508.4C1576.32 507.133 1578.2 506.5 1580.6 506.5H1588.65V510.6H1580.6C1579.57 510.6 1578.77 510.85 1578.2 511.35C1577.67 511.817 1577.4 512.533 1577.4 513.5V518.25H1588.65V522.35H1577.4V543H1572.9ZM1596.13 543V538.9H1605.88V519.6H1597.38V515.5H1610.38V538.9H1619.63V543H1596.13ZM1607.63 510.55C1606.53 510.55 1605.67 510.267 1605.03 509.7C1604.4 509.133 1604.08 508.367 1604.08 507.4C1604.08 506.4 1604.4 505.617 1605.03 505.05C1605.67 504.45 1606.53 504.15 1607.63 504.15C1608.73 504.15 1609.6 504.45 1610.23 505.05C1610.87 505.617 1611.18 506.4 1611.18 507.4C1611.18 508.367 1610.87 509.133 1610.23 509.7C1609.6 510.267 1608.73 510.55 1607.63 510.55ZM1627.41 543V515.5H1631.81V520.75H1632.86L1631.41 524C1631.41 521.033 1632.05 518.8 1633.31 517.3C1634.61 515.767 1636.53 515 1639.06 515C1641.96 515 1644.26 515.917 1645.96 517.75C1647.7 519.55 1648.56 522 1648.56 525.1V526.75H1644.06V525.5C1644.06 523.333 1643.53 521.683 1642.46 520.55C1641.43 519.383 1639.95 518.8 1638.01 518.8C1636.11 518.8 1634.61 519.383 1633.51 520.55C1632.45 521.717 1631.91 523.367 1631.91 525.5V543H1627.41ZM1665.99 543.4C1664.13 543.4 1662.49 543.117 1661.09 542.55C1659.73 541.95 1658.63 541.117 1657.79 540.05C1656.99 538.983 1656.51 537.717 1656.34 536.25H1660.84C1661.04 537.217 1661.58 537.983 1662.44 538.55C1663.34 539.117 1664.53 539.4 1665.99 539.4H1668.09C1669.86 539.4 1671.18 539.05 1672.04 538.35C1672.91 537.617 1673.34 536.65 1673.34 535.45C1673.34 534.283 1672.94 533.367 1672.14 532.7C1671.38 532 1670.23 531.533 1668.69 531.3L1664.99 530.7C1662.29 530.233 1660.28 529.4 1658.94 528.2C1657.64 526.967 1656.99 525.183 1656.99 522.85C1656.99 520.383 1657.78 518.483 1659.34 517.15C1660.91 515.783 1663.26 515.1 1666.39 515.1H1668.29C1670.93 515.1 1673.04 515.717 1674.64 516.95C1676.24 518.183 1677.21 519.85 1677.54 521.95H1673.04C1672.84 521.083 1672.34 520.4 1671.54 519.9C1670.74 519.367 1669.66 519.1 1668.29 519.1H1666.39C1664.69 519.1 1663.44 519.417 1662.64 520.05C1661.88 520.683 1661.49 521.633 1661.49 522.9C1661.49 524.033 1661.83 524.867 1662.49 525.4C1663.16 525.933 1664.21 526.317 1665.64 526.55L1669.34 527.15C1672.31 527.617 1674.46 528.483 1675.79 529.75C1677.16 531.017 1677.84 532.85 1677.84 535.25C1677.84 537.783 1677.03 539.783 1675.39 541.25C1673.79 542.683 1671.36 543.4 1668.09 543.4H1665.99ZM1699.82 543C1697.46 543 1695.61 542.367 1694.27 541.1C1692.97 539.833 1692.32 538.05 1692.32 535.75V519.6H1684.57V515.5H1692.32V507.75H1696.82V515.5H1707.82V519.6H1696.82V535.75C1696.82 537.85 1697.82 538.9 1699.82 538.9H1707.32V543H1699.82ZM1730.05 521.5L1729.45 511V506.5H1734.3V511L1733.75 521.5H1730.05ZM1719.9 521.5L1719.3 511V506.5H1724.15V511L1723.6 521.5H1719.9ZM1779.27 548.5V544.5H1787.02V505.5H1779.27V501.5H1791.52V548.5H1779.27ZM1810 551L1814 535.45H1820.5L1814 551H1810ZM1482.21 624.5V577.5H1494.46V581.5H1486.71V620.5H1494.46V624.5H1482.21ZM2079.07 624.5V620.5H2086.82V581.5H2079.07V577.5H2091.32V624.5H2079.07ZM2109.8 627L2113.8 611.45H2120.3L2113.8 627H2109.8Z" fill="#6C6E72"/>
<path d="M1596.48 467V430.5H1600.98V439.5V444.75H1601.93L1600.98 445.8C1600.98 443.633 1601.63 441.967 1602.93 440.8C1604.23 439.6 1606.03 439 1608.33 439C1611.1 439 1613.3 439.85 1614.93 441.55C1616.57 443.25 1617.38 445.567 1617.38 448.5V467H1612.88V449C1612.88 447.033 1612.35 445.517 1611.28 444.45C1610.25 443.35 1608.83 442.8 1607.03 442.8C1605.17 442.8 1603.68 443.383 1602.58 444.55C1601.52 445.717 1600.98 447.367 1600.98 449.5V467H1596.48ZM1626.11 467V462.9H1635.86V443.6H1627.36V439.5H1640.36V462.9H1649.61V467H1626.11ZM1637.61 434.55C1636.51 434.55 1635.65 434.267 1635.01 433.7C1634.38 433.133 1634.06 432.367 1634.06 431.4C1634.06 430.4 1634.38 429.617 1635.01 429.05C1635.65 428.45 1636.51 428.15 1637.61 428.15C1638.71 428.15 1639.58 428.45 1640.21 429.05C1640.85 429.617 1641.16 430.4 1641.16 431.4C1641.16 432.367 1640.85 433.133 1640.21 433.7C1639.58 434.267 1638.71 434.55 1637.61 434.55ZM1665.99 467.4C1664.13 467.4 1662.49 467.117 1661.09 466.55C1659.73 465.95 1658.63 465.117 1657.79 464.05C1656.99 462.983 1656.51 461.717 1656.34 460.25H1660.84C1661.04 461.217 1661.58 461.983 1662.44 462.55C1663.34 463.117 1664.53 463.4 1665.99 463.4H1668.09C1669.86 463.4 1671.18 463.05 1672.04 462.35C1672.91 461.617 1673.34 460.65 1673.34 459.45C1673.34 458.283 1672.94 457.367 1672.14 456.7C1671.38 456 1670.23 455.533 1668.69 455.3L1664.99 454.7C1662.29 454.233 1660.28 453.4 1658.94 452.2C1657.64 450.967 1656.99 449.183 1656.99 446.85C1656.99 444.383 1657.78 442.483 1659.34 441.15C1660.91 439.783 1663.26 439.1 1666.39 439.1H1668.29C1670.93 439.1 1673.04 439.717 1674.64 440.95C1676.24 442.183 1677.21 443.85 1677.54 445.95H1673.04C1672.84 445.083 1672.34 444.4 1671.54 443.9C1670.74 443.367 1669.66 443.1 1668.29 443.1H1666.39C1664.69 443.1 1663.44 443.417 1662.64 444.05C1661.88 444.683 1661.49 445.633 1661.49 446.9C1661.49 448.033 1661.83 448.867 1662.49 449.4C1663.16 449.933 1664.21 450.317 1665.64 450.55L1669.34 451.15C1672.31 451.617 1674.46 452.483 1675.79 453.75C1677.16 455.017 1677.84 456.85 1677.84 459.25C1677.84 461.783 1677.03 463.783 1675.39 465.25C1673.79 466.683 1671.36 467.4 1668.09 467.4H1665.99ZM1699.82 467C1697.46 467 1695.61 466.367 1694.27 465.1C1692.97 463.833 1692.32 462.05 1692.32 459.75V443.6H1684.57V439.5H1692.32V431.75H1696.82V439.5H1707.82V443.6H1696.82V459.75C1696.82 461.85 1697.82 462.9 1699.82 462.9H1707.32V467H1699.82ZM1726.8 467.4C1724.6 467.4 1722.7 466.983 1721.1 466.15C1719.5 465.317 1718.25 464.117 1717.35 462.55C1716.49 460.95 1716.05 459.067 1716.05 456.9V449.6C1716.05 447.4 1716.49 445.517 1717.35 443.95C1718.25 442.383 1719.5 441.183 1721.1 440.35C1722.7 439.517 1724.6 439.1 1726.8 439.1C1729 439.1 1730.9 439.517 1732.5 440.35C1734.1 441.183 1735.34 442.383 1736.2 443.95C1737.1 445.517 1737.55 447.383 1737.55 449.55V456.9C1737.55 459.067 1737.1 460.95 1736.2 462.55C1735.34 464.117 1734.1 465.317 1732.5 466.15C1730.9 466.983 1729 467.4 1726.8 467.4ZM1726.8 463.4C1728.77 463.4 1730.3 462.85 1731.4 461.75C1732.5 460.65 1733.05 459.033 1733.05 456.9V449.6C1733.05 447.467 1732.5 445.85 1731.4 444.75C1730.3 443.65 1728.77 443.1 1726.8 443.1C1724.87 443.1 1723.34 443.65 1722.2 444.75C1721.1 445.85 1720.55 447.467 1720.55 449.6V456.9C1720.55 459.033 1721.1 460.65 1722.2 461.75C1723.34 462.85 1724.87 463.4 1726.8 463.4ZM1747.34 467V439.5H1751.74V444.75H1752.79L1751.34 448C1751.34 445.033 1751.97 442.8 1753.24 441.3C1754.54 439.767 1756.45 439 1758.99 439C1761.89 439 1764.19 439.917 1765.89 441.75C1767.62 443.55 1768.49 446 1768.49 449.1V450.75H1763.99V449.5C1763.99 447.333 1763.45 445.683 1762.39 444.55C1761.35 443.383 1759.87 442.8 1757.94 442.8C1756.04 442.8 1754.54 443.383 1753.44 444.55C1752.37 445.717 1751.84 447.367 1751.84 449.5V467H1747.34ZM1780.67 476L1784.72 465.3L1774.52 439.5H1779.52L1785.92 456.5C1786.15 457.067 1786.37 457.75 1786.57 458.55C1786.77 459.317 1786.93 459.967 1787.07 460.5C1787.2 459.967 1787.37 459.317 1787.57 458.55C1787.77 457.75 1787.97 457.067 1788.17 456.5L1794.17 439.5H1799.02L1785.47 476H1780.67ZM2351.64 472.5V425.5H2363.89V429.5H2356.14V468.5H2363.89V472.5H2351.64ZM1419.5 776.5V772.5H1427.25V733.5H1419.5V729.5H1431.75V776.5H1419.5Z" fill="#F1D900"/>
<path d="M1550.17 597.5L1549.57 587V582.5H1554.42V587L1553.87 597.5H1550.17ZM1540.02 597.5L1539.42 587V582.5H1544.27V587L1543.72 597.5H1540.02ZM1572.9 619V598.35H1564.9V594.25H1572.9V589.5C1572.9 587.333 1573.59 585.633 1574.95 584.4C1576.32 583.133 1578.2 582.5 1580.6 582.5H1588.65V586.6H1580.6C1579.57 586.6 1578.77 586.85 1578.2 587.35C1577.67 587.817 1577.4 588.533 1577.4 589.5V594.25H1588.65V598.35H1577.4V619H1572.9ZM1596.13 619V614.9H1605.88V595.6H1597.38V591.5H1610.38V614.9H1619.63V619H1596.13ZM1607.63 586.55C1606.53 586.55 1605.67 586.267 1605.03 585.7C1604.4 585.133 1604.08 584.367 1604.08 583.4C1604.08 582.4 1604.4 581.617 1605.03 581.05C1605.67 580.45 1606.53 580.15 1607.63 580.15C1608.73 580.15 1609.6 580.45 1610.23 581.05C1610.87 581.617 1611.18 582.4 1611.18 583.4C1611.18 584.367 1610.87 585.133 1610.23 585.7C1609.6 586.267 1608.73 586.55 1607.63 586.55ZM1627.41 619V591.5H1631.81V596.75H1632.86L1631.41 600C1631.41 597.033 1632.05 594.8 1633.31 593.3C1634.61 591.767 1636.53 591 1639.06 591C1641.96 591 1644.26 591.917 1645.96 593.75C1647.7 595.55 1648.56 598 1648.56 601.1V602.75H1644.06V601.5C1644.06 599.333 1643.53 597.683 1642.46 596.55C1641.43 595.383 1639.95 594.8 1638.01 594.8C1636.11 594.8 1634.61 595.383 1633.51 596.55C1632.45 597.717 1631.91 599.367 1631.91 601.5V619H1627.41ZM1665.99 619.4C1664.13 619.4 1662.49 619.117 1661.09 618.55C1659.73 617.95 1658.63 617.117 1657.79 616.05C1656.99 614.983 1656.51 613.717 1656.34 612.25H1660.84C1661.04 613.217 1661.58 613.983 1662.44 614.55C1663.34 615.117 1664.53 615.4 1665.99 615.4H1668.09C1669.86 615.4 1671.18 615.05 1672.04 614.35C1672.91 613.617 1673.34 612.65 1673.34 611.45C1673.34 610.283 1672.94 609.367 1672.14 608.7C1671.38 608 1670.23 607.533 1668.69 607.3L1664.99 606.7C1662.29 606.233 1660.28 605.4 1658.94 604.2C1657.64 602.967 1656.99 601.183 1656.99 598.85C1656.99 596.383 1657.78 594.483 1659.34 593.15C1660.91 591.783 1663.26 591.1 1666.39 591.1H1668.29C1670.93 591.1 1673.04 591.717 1674.64 592.95C1676.24 594.183 1677.21 595.85 1677.54 597.95H1673.04C1672.84 597.083 1672.34 596.4 1671.54 595.9C1670.74 595.367 1669.66 595.1 1668.29 595.1H1666.39C1664.69 595.1 1663.44 595.417 1662.64 596.05C1661.88 596.683 1661.49 597.633 1661.49 598.9C1661.49 600.033 1661.83 600.867 1662.49 601.4C1663.16 601.933 1664.21 602.317 1665.64 602.55L1669.34 603.15C1672.31 603.617 1674.46 604.483 1675.79 605.75C1677.16 607.017 1677.84 608.85 1677.84 611.25C1677.84 613.783 1677.03 615.783 1675.39 617.25C1673.79 618.683 1671.36 619.4 1668.09 619.4H1665.99ZM1699.82 619C1697.46 619 1695.61 618.367 1694.27 617.1C1692.97 615.833 1692.32 614.05 1692.32 611.75V595.6H1684.57V591.5H1692.32V583.75H1696.82V591.5H1707.82V595.6H1696.82V611.75C1696.82 613.85 1697.82 614.9 1699.82 614.9H1707.32V619H1699.82ZM1730.05 597.5L1729.45 587V582.5H1734.3V587L1733.75 597.5H1730.05ZM1719.9 597.5L1719.3 587V582.5H1724.15V587L1723.6 597.5H1719.9ZM1750.04 627L1754.04 611.45H1760.54L1754.04 627H1750.04ZM1820 597.5L1819.4 587V582.5H1824.25V587L1823.7 597.5H1820ZM1809.85 597.5L1809.25 587V582.5H1814.1V587L1813.55 597.5H1809.85ZM1845.88 619.4C1844.01 619.4 1842.38 619.117 1840.98 618.55C1839.61 617.95 1838.51 617.117 1837.68 616.05C1836.88 614.983 1836.39 613.717 1836.23 612.25H1840.73C1840.93 613.217 1841.46 613.983 1842.33 614.55C1843.23 615.117 1844.41 615.4 1845.88 615.4H1847.98C1849.74 615.4 1851.06 615.05 1851.93 614.35C1852.79 613.617 1853.23 612.65 1853.23 611.45C1853.23 610.283 1852.83 609.367 1852.03 608.7C1851.26 608 1850.11 607.533 1848.58 607.3L1844.88 606.7C1842.18 606.233 1840.16 605.4 1838.83 604.2C1837.53 602.967 1836.88 601.183 1836.88 598.85C1836.88 596.383 1837.66 594.483 1839.23 593.15C1840.79 591.783 1843.14 591.1 1846.28 591.1H1848.18C1850.81 591.1 1852.93 591.717 1854.53 592.95C1856.13 594.183 1857.09 595.85 1857.43 597.95H1852.93C1852.73 597.083 1852.23 596.4 1851.43 595.9C1850.63 595.367 1849.54 595.1 1848.18 595.1H1846.28C1844.58 595.1 1843.33 595.417 1842.53 596.05C1841.76 596.683 1841.38 597.633 1841.38 598.9C1841.38 600.033 1841.71 600.867 1842.38 601.4C1843.04 601.933 1844.09 602.317 1845.53 602.55L1849.23 603.15C1852.19 603.617 1854.34 604.483 1855.68 605.75C1857.04 607.017 1857.73 608.85 1857.73 611.25C1857.73 613.783 1856.91 615.783 1855.28 617.25C1853.68 618.683 1851.24 619.4 1847.98 619.4H1845.88ZM1876.71 619.5C1874.54 619.5 1872.64 619.067 1871.01 618.2C1869.41 617.333 1868.16 616.117 1867.26 614.55C1866.39 612.95 1865.96 611.1 1865.96 609V601.5C1865.96 599.367 1866.39 597.517 1867.26 595.95C1868.16 594.383 1869.41 593.167 1871.01 592.3C1872.64 591.433 1874.54 591 1876.71 591C1878.87 591 1880.76 591.433 1882.36 592.3C1883.99 593.167 1885.24 594.383 1886.11 595.95C1887.01 597.517 1887.46 599.367 1887.46 601.5V606.35H1870.36V609C1870.36 611.167 1870.91 612.833 1872.01 614C1873.11 615.133 1874.67 615.7 1876.71 615.7C1878.44 615.7 1879.84 615.4 1880.91 614.8C1881.97 614.167 1882.62 613.233 1882.86 612H1887.36C1887.06 614.3 1885.92 616.133 1883.96 617.5C1882.02 618.833 1879.61 619.5 1876.71 619.5ZM1883.06 603.35V601.5C1883.06 599.333 1882.51 597.667 1881.41 596.5C1880.34 595.333 1878.77 594.75 1876.71 594.75C1874.67 594.75 1873.11 595.333 1872.01 596.5C1870.91 597.667 1870.36 599.333 1870.36 601.5V602.95H1883.41L1883.06 603.35ZM1906.89 619.5C1904.69 619.5 1902.75 619.083 1901.09 618.25C1899.45 617.417 1898.19 616.217 1897.29 614.65C1896.39 613.05 1895.94 611.167 1895.94 609V601.5C1895.94 599.3 1896.39 597.417 1897.29 595.85C1898.19 594.283 1899.45 593.083 1901.09 592.25C1902.75 591.417 1904.69 591 1906.89 591C1910.05 591 1912.6 591.85 1914.54 593.55C1916.47 595.25 1917.49 597.567 1917.59 600.5H1913.09C1912.99 598.733 1912.39 597.383 1911.29 596.45C1910.22 595.483 1908.75 595 1906.89 595C1904.92 595 1903.35 595.567 1902.19 596.7C1901.02 597.8 1900.44 599.383 1900.44 601.45V609C1900.44 611.067 1901.02 612.667 1902.19 613.8C1903.35 614.933 1904.92 615.5 1906.89 615.5C1908.75 615.5 1910.22 615.017 1911.29 614.05C1912.39 613.083 1912.99 611.733 1913.09 610H1917.59C1917.49 612.933 1916.47 615.25 1914.54 616.95C1912.6 618.65 1910.05 619.5 1906.89 619.5ZM1936.67 619.4C1934.47 619.4 1932.57 618.983 1930.97 618.15C1929.37 617.317 1928.12 616.117 1927.22 614.55C1926.35 612.95 1925.92 611.067 1925.92 608.9V601.6C1925.92 599.4 1926.35 597.517 1927.22 595.95C1928.12 594.383 1929.37 593.183 1930.97 592.35C1932.57 591.517 1934.47 591.1 1936.67 591.1C1938.87 591.1 1940.77 591.517 1942.37 592.35C1943.97 593.183 1945.2 594.383 1946.07 595.95C1946.97 597.517 1947.42 599.383 1947.42 601.55V608.9C1947.42 611.067 1946.97 612.95 1946.07 614.55C1945.2 616.117 1943.97 617.317 1942.37 618.15C1940.77 618.983 1938.87 619.4 1936.67 619.4ZM1936.67 615.4C1938.63 615.4 1940.17 614.85 1941.27 613.75C1942.37 612.65 1942.92 611.033 1942.92 608.9V601.6C1942.92 599.467 1942.37 597.85 1941.27 596.75C1940.17 595.65 1938.63 595.1 1936.67 595.1C1934.73 595.1 1933.2 595.65 1932.07 596.75C1930.97 597.85 1930.42 599.467 1930.42 601.6V608.9C1930.42 611.033 1930.97 612.65 1932.07 613.75C1933.2 614.85 1934.73 615.4 1936.67 615.4ZM1956.25 619V591.5H1960.75V596.75H1961.7L1960.75 597.8C1960.75 595.633 1961.4 593.967 1962.7 592.8C1964 591.6 1965.8 591 1968.1 591C1970.87 591 1973.07 591.85 1974.7 593.55C1976.33 595.25 1977.15 597.567 1977.15 600.5V619H1972.65V601C1972.65 599.033 1972.12 597.533 1971.05 596.5C1970.02 595.433 1968.6 594.9 1966.8 594.9C1964.93 594.9 1963.45 595.467 1962.35 596.6C1961.28 597.733 1960.75 599.367 1960.75 601.5V619H1956.25ZM1995.03 619.5C1992.3 619.5 1990.08 618.583 1988.38 616.75C1986.71 614.917 1985.88 612.433 1985.88 609.3V601.25C1985.88 598.083 1986.71 595.583 1988.38 593.75C1990.05 591.917 1992.26 591 1995.03 591C1997.3 591 1999.11 591.617 2000.48 592.85C2001.85 594.083 2002.53 595.733 2002.53 597.8L2001.63 596.75H2002.63L2002.53 590.5V582.5H2007.03V619H2002.53V613.75H2001.63L2002.53 612.7C2002.53 614.8 2001.85 616.467 2000.48 617.7C1999.11 618.9 1997.3 619.5 1995.03 619.5ZM1996.53 615.6C1998.4 615.6 1999.86 615.017 2000.93 613.85C2002 612.683 2002.53 611.067 2002.53 609V601.5C2002.53 599.433 2002 597.817 2000.93 596.65C1999.86 595.483 1998.4 594.9 1996.53 594.9C1994.63 594.9 1993.13 595.467 1992.03 596.6C1990.93 597.733 1990.38 599.367 1990.38 601.5V609C1990.38 611.133 1990.93 612.767 1992.03 613.9C1993.13 615.033 1994.63 615.6 1996.53 615.6ZM2029.86 597.5L2029.26 587V582.5H2034.11V587L2033.56 597.5H2029.86ZM2019.71 597.5L2019.11 587V582.5H2023.96V587L2023.41 597.5H2019.71Z" fill="#44E61C"/>
<path d="M171.088 438.44C168.536 438.44 166.527 437.795 165.06 436.504C163.593 435.184 162.86 433.409 162.86 431.18C162.86 428.921 163.593 427.147 165.06 425.856C166.527 424.565 168.507 423.92 171 423.92H178.48V421.5C178.48 420.004 178.025 418.86 177.116 418.068C176.236 417.247 174.975 416.836 173.332 416.836C171.895 416.836 170.692 417.144 169.724 417.76C168.756 418.347 168.199 419.153 168.052 420.18H164.092C164.356 418.097 165.339 416.44 167.04 415.208C168.741 413.976 170.868 413.36 173.42 413.36C176.207 413.36 178.407 414.079 180.02 415.516C181.633 416.953 182.44 418.904 182.44 421.368V438H178.568V433.38H177.908L178.568 432.72C178.568 434.48 177.879 435.873 176.5 436.9C175.151 437.927 173.347 438.44 171.088 438.44ZM172.056 435.316C173.933 435.316 175.473 434.847 176.676 433.908C177.879 432.969 178.48 431.767 178.48 430.3V426.868H171.088C169.768 426.868 168.727 427.235 167.964 427.968C167.201 428.701 166.82 429.699 166.82 430.96C166.82 432.309 167.275 433.38 168.184 434.172C169.123 434.935 170.413 435.316 172.056 435.316ZM198.175 438.44C195.769 438.44 193.819 437.633 192.323 436.02C190.856 434.407 190.123 432.221 190.123 429.464V422.38C190.123 419.593 190.856 417.393 192.323 415.78C193.789 414.167 195.74 413.36 198.175 413.36C200.169 413.36 201.768 413.903 202.971 414.988C204.173 416.073 204.775 417.525 204.775 419.344L203.983 418.42H204.863L204.775 412.92V405.88H208.735V438H204.775V433.38H203.983L204.775 432.456C204.775 434.304 204.173 435.771 202.971 436.856C201.768 437.912 200.169 438.44 198.175 438.44ZM199.495 435.008C201.137 435.008 202.428 434.495 203.367 433.468C204.305 432.441 204.775 431.019 204.775 429.2V422.6C204.775 420.781 204.305 419.359 203.367 418.332C202.428 417.305 201.137 416.792 199.495 416.792C197.823 416.792 196.503 417.291 195.535 418.288C194.567 419.285 194.083 420.723 194.083 422.6V429.2C194.083 431.077 194.567 432.515 195.535 433.512C196.503 434.509 197.823 435.008 199.495 435.008ZM224.558 438.44C222.152 438.44 220.202 437.633 218.706 436.02C217.239 434.407 216.506 432.221 216.506 429.464V422.38C216.506 419.593 217.239 417.393 218.706 415.78C220.172 414.167 222.123 413.36 224.558 413.36C226.552 413.36 228.151 413.903 229.354 414.988C230.556 416.073 231.158 417.525 231.158 419.344L230.366 418.42H231.246L231.158 412.92V405.88H235.118V438H231.158V433.38H230.366L231.158 432.456C231.158 434.304 230.556 435.771 229.354 436.856C228.151 437.912 226.552 438.44 224.558 438.44ZM225.878 435.008C227.52 435.008 228.811 434.495 229.75 433.468C230.688 432.441 231.158 431.019 231.158 429.2V422.6C231.158 420.781 230.688 419.359 229.75 418.332C228.811 417.305 227.52 416.792 225.878 416.792C224.206 416.792 222.886 417.291 221.918 418.288C220.95 419.285 220.466 420.723 220.466 422.6V429.2C220.466 431.077 220.95 432.515 221.918 433.512C222.886 434.509 224.206 435.008 225.878 435.008ZM260.488 443.28C256.323 442.253 253.082 440.229 250.764 437.208C248.447 434.187 247.288 430.491 247.288 426.12V418.2C247.288 415.325 247.816 412.729 248.872 410.412C249.958 408.065 251.483 406.085 253.448 404.472C255.443 402.859 257.79 401.715 260.488 401.04V404.78C258.611 405.22 256.983 406.071 255.604 407.332C254.226 408.564 253.155 410.104 252.392 411.952C251.63 413.8 251.248 415.883 251.248 418.2V426.12C251.248 428.379 251.615 430.432 252.348 432.28C253.111 434.128 254.182 435.668 255.56 436.9C256.968 438.103 258.611 438.924 260.488 439.364V443.28ZM278.951 417.54L284.671 403.856H288.191L284.671 417.54H278.951ZM268.831 417.54L274.551 403.856H278.071L274.551 417.54H268.831ZM301.594 438V419.828H294.554V416.22H301.594V412.04C301.594 410.133 302.195 408.637 303.398 407.552C304.601 406.437 306.258 405.88 308.37 405.88H315.454V409.488H308.37C307.461 409.488 306.757 409.708 306.258 410.148C305.789 410.559 305.554 411.189 305.554 412.04V416.22H315.454V419.828H305.554V438H301.594ZM322.037 438V434.392H330.617V417.408H323.137V413.8H334.577V434.392H342.717V438H322.037ZM332.157 409.444C331.189 409.444 330.426 409.195 329.869 408.696C329.312 408.197 329.033 407.523 329.033 406.672C329.033 405.792 329.312 405.103 329.869 404.604C330.426 404.076 331.189 403.812 332.157 403.812C333.125 403.812 333.888 404.076 334.445 404.604C335.002 405.103 335.281 405.792 335.281 406.672C335.281 407.523 335.002 408.197 334.445 408.696C333.888 409.195 333.125 409.444 332.157 409.444ZM354.36 438V419.828H347.32V416.22H354.36V412.04C354.36 410.133 354.961 408.637 356.164 407.552C357.366 406.437 359.024 405.88 361.136 405.88H368.22V409.488H361.136C360.226 409.488 359.522 409.708 359.024 410.148C358.554 410.559 358.32 411.189 358.32 412.04V416.22H368.22V419.828H358.32V438H354.36ZM386.903 438C384.82 438 383.192 437.443 382.019 436.328C380.875 435.213 380.303 433.644 380.303 431.62V417.408H373.483V413.8H380.303V406.98H384.263V413.8H393.943V417.408H384.263V431.62C384.263 433.468 385.143 434.392 386.903 434.392H393.503V438H386.903ZM401.493 438V405.88H405.453V413.8V418.42H406.289L405.453 419.344C405.453 417.437 406.025 415.971 407.169 414.944C408.313 413.888 409.897 413.36 411.921 413.36C414.356 413.36 416.292 414.108 417.729 415.604C419.167 417.1 419.885 419.139 419.885 421.72V438H415.925V422.16C415.925 420.429 415.456 419.095 414.517 418.156C413.608 417.188 412.361 416.704 410.777 416.704C409.135 416.704 407.829 417.217 406.861 418.244C405.923 419.271 405.453 420.723 405.453 422.6V438H401.493ZM437.688 417.54L441.208 403.856H446.928L441.208 417.54H437.688ZM427.568 417.54L431.088 403.856H436.808L431.088 417.54H427.568ZM455.271 443.28V439.364C457.178 438.924 458.82 438.103 460.199 436.9C461.578 435.668 462.634 434.128 463.367 432.28C464.13 430.432 464.511 428.379 464.511 426.12V418.2C464.511 415.883 464.13 413.8 463.367 411.952C462.604 410.104 461.534 408.564 460.155 407.332C458.776 406.071 457.148 405.22 455.271 404.78V401.04C457.999 401.715 460.346 402.859 462.311 404.472C464.276 406.085 465.787 408.065 466.843 410.412C467.928 412.729 468.471 415.325 468.471 418.2V426.12C468.471 430.491 467.312 434.187 464.995 437.208C462.678 440.229 459.436 442.253 455.271 443.28ZM591.145 442.84V401.48H601.925V405H595.105V439.32H601.925V442.84H591.145ZM1090.66 445.04L1094.18 431.356H1099.9L1094.18 445.04H1090.66ZM1149.58 417.54L1155.3 403.856H1158.82L1155.3 417.54H1149.58ZM1139.46 417.54L1145.18 403.856H1148.7L1145.18 417.54H1139.46ZM1178.39 438C1176.3 438 1174.68 437.443 1173.5 436.328C1172.36 435.213 1171.79 433.644 1171.79 431.62V417.408H1164.97V413.8H1171.79V406.98H1175.75V413.8H1185.43V417.408H1175.75V431.62C1175.75 433.468 1176.63 434.392 1178.39 434.392H1184.99V438H1178.39ZM1192.98 438V405.88H1196.94V413.8V418.42H1197.77L1196.94 419.344C1196.94 417.437 1197.51 415.971 1198.65 414.944C1199.8 413.888 1201.38 413.36 1203.41 413.36C1205.84 413.36 1207.78 414.108 1209.21 415.604C1210.65 417.1 1211.37 419.139 1211.37 421.72V438H1207.41V422.16C1207.41 420.429 1206.94 419.095 1206 418.156C1205.09 417.188 1203.85 416.704 1202.26 416.704C1200.62 416.704 1199.31 417.217 1198.35 418.244C1197.41 419.271 1196.94 420.723 1196.94 422.6V438H1192.98ZM1219.05 438V434.392H1227.63V417.408H1220.15V413.8H1231.59V434.392H1239.73V438H1219.05ZM1229.17 409.444C1228.2 409.444 1227.44 409.195 1226.88 408.696C1226.33 408.197 1226.05 407.523 1226.05 406.672C1226.05 405.792 1226.33 405.103 1226.88 404.604C1227.44 404.076 1228.2 403.812 1229.17 403.812C1230.14 403.812 1230.9 404.076 1231.46 404.604C1232.02 405.103 1232.3 405.792 1232.3 406.672C1232.3 407.523 1232.02 408.197 1231.46 408.696C1230.9 409.195 1230.14 409.444 1229.17 409.444ZM1246.58 438V413.8H1250.45V418.42H1251.38L1250.1 421.28C1250.1 418.669 1250.66 416.704 1251.77 415.384C1252.92 414.035 1254.6 413.36 1256.83 413.36C1259.38 413.36 1261.41 414.167 1262.9 415.78C1264.43 417.364 1265.19 419.52 1265.19 422.248V423.7H1261.23V422.6C1261.23 420.693 1260.76 419.241 1259.82 418.244C1258.91 417.217 1257.61 416.704 1255.91 416.704C1254.24 416.704 1252.92 417.217 1251.95 418.244C1251.01 419.271 1250.54 420.723 1250.54 422.6V438H1246.58ZM1279.87 438.44C1277.46 438.44 1275.51 437.633 1274.02 436.02C1272.55 434.407 1271.82 432.221 1271.82 429.464V422.38C1271.82 419.593 1272.55 417.393 1274.02 415.78C1275.48 414.167 1277.44 413.36 1279.87 413.36C1281.86 413.36 1283.46 413.903 1284.67 414.988C1285.87 416.073 1286.47 417.525 1286.47 419.344L1285.68 418.42H1286.56L1286.47 412.92V405.88H1290.43V438H1286.47V433.38H1285.68L1286.47 432.456C1286.47 434.304 1285.87 435.771 1284.67 436.856C1283.46 437.912 1281.86 438.44 1279.87 438.44ZM1281.19 435.008C1282.83 435.008 1284.12 434.495 1285.06 433.468C1286 432.441 1286.47 431.019 1286.47 429.2V422.6C1286.47 420.781 1286 419.359 1285.06 418.332C1284.12 417.305 1282.83 416.792 1281.19 416.792C1279.52 416.792 1278.2 417.291 1277.23 418.288C1276.26 419.285 1275.78 420.723 1275.78 422.6V429.2C1275.78 431.077 1276.26 432.515 1277.23 433.512C1278.2 434.509 1279.52 435.008 1281.19 435.008ZM1308.32 417.54L1311.84 403.856H1317.56L1311.84 417.54H1308.32ZM1298.2 417.54L1301.72 403.856H1307.44L1301.72 417.54H1298.2ZM1353.83 442.84V439.32H1360.65V405H1353.83V401.48H1364.61V442.84H1353.83Z" fill="#FF5151"/>
<path d="M648.311 417.54L654.031 403.856H657.551L654.031 417.54H648.311ZM638.191 417.54L643.911 403.856H647.431L643.911 417.54H638.191ZM670.953 438V419.828H663.913V416.22H670.953V412.04C670.953 410.133 671.555 408.637 672.757 407.552C673.96 406.437 675.617 405.88 677.729 405.88H684.813V409.488H677.729C676.82 409.488 676.116 409.708 675.617 410.148C675.148 410.559 674.913 411.189 674.913 412.04V416.22H684.813V419.828H674.913V438H670.953ZM691.396 438V434.392H699.976V417.408H692.496V413.8H703.936V434.392H712.076V438H691.396ZM701.516 409.444C700.548 409.444 699.786 409.195 699.228 408.696C698.671 408.197 698.392 407.523 698.392 406.672C698.392 405.792 698.671 405.103 699.228 404.604C699.786 404.076 700.548 403.812 701.516 403.812C702.484 403.812 703.247 404.076 703.804 404.604C704.362 405.103 704.64 405.792 704.64 406.672C704.64 407.523 704.362 408.197 703.804 408.696C703.247 409.195 702.484 409.444 701.516 409.444ZM718.923 438V413.8H722.795V418.42H723.719L722.443 421.28C722.443 418.669 723 416.704 724.115 415.384C725.259 414.035 726.946 413.36 729.175 413.36C731.727 413.36 733.751 414.167 735.247 415.78C736.772 417.364 737.535 419.52 737.535 422.248V423.7H733.575V422.6C733.575 420.693 733.106 419.241 732.167 418.244C731.258 417.217 729.952 416.704 728.251 416.704C726.579 416.704 725.259 417.217 724.291 418.244C723.352 419.271 722.883 420.723 722.883 422.6V438H718.923ZM752.874 438.352C751.231 438.352 749.794 438.103 748.562 437.604C747.359 437.076 746.391 436.343 745.658 435.404C744.954 434.465 744.529 433.351 744.382 432.06H748.342C748.518 432.911 748.987 433.585 749.75 434.084C750.542 434.583 751.583 434.832 752.874 434.832H754.722C756.277 434.832 757.435 434.524 758.198 433.908C758.961 433.263 759.342 432.412 759.342 431.356C759.342 430.329 758.99 429.523 758.286 428.936C757.611 428.32 756.599 427.909 755.25 427.704L751.994 427.176C749.618 426.765 747.843 426.032 746.67 424.976C745.526 423.891 744.954 422.321 744.954 420.268C744.954 418.097 745.643 416.425 747.022 415.252C748.401 414.049 750.469 413.448 753.226 413.448H754.898C757.215 413.448 759.078 413.991 760.486 415.076C761.894 416.161 762.745 417.628 763.038 419.476H759.078C758.902 418.713 758.462 418.112 757.758 417.672C757.054 417.203 756.101 416.968 754.898 416.968H753.226C751.73 416.968 750.63 417.247 749.926 417.804C749.251 418.361 748.914 419.197 748.914 420.312C748.914 421.309 749.207 422.043 749.794 422.512C750.381 422.981 751.305 423.319 752.566 423.524L755.822 424.052C758.433 424.463 760.325 425.225 761.498 426.34C762.701 427.455 763.302 429.068 763.302 431.18C763.302 433.409 762.583 435.169 761.146 436.46C759.738 437.721 757.597 438.352 754.722 438.352H752.874ZM782.645 438C780.562 438 778.934 437.443 777.761 436.328C776.617 435.213 776.045 433.644 776.045 431.62V417.408H769.225V413.8H776.045V406.98H780.005V413.8H789.685V417.408H780.005V431.62C780.005 433.468 780.885 434.392 782.645 434.392H789.245V438H782.645ZM807.048 417.54L810.568 403.856H816.288L810.568 417.54H807.048ZM796.928 417.54L800.448 403.856H806.168L800.448 417.54H796.928ZM826.83 445.04L830.35 431.356H836.07L830.35 445.04H826.83ZM885.756 417.54L891.476 403.856H894.996L891.476 417.54H885.756ZM875.636 417.54L881.356 403.856H884.876L881.356 417.54H875.636ZM911.171 438.352C909.528 438.352 908.091 438.103 906.859 437.604C905.656 437.076 904.688 436.343 903.955 435.404C903.251 434.465 902.825 433.351 902.679 432.06H906.639C906.815 432.911 907.284 433.585 908.047 434.084C908.839 434.583 909.88 434.832 911.171 434.832H913.019C914.573 434.832 915.732 434.524 916.495 433.908C917.257 433.263 917.639 432.412 917.639 431.356C917.639 430.329 917.287 429.523 916.583 428.936C915.908 428.32 914.896 427.909 913.547 427.704L910.291 427.176C907.915 426.765 906.14 426.032 904.967 424.976C903.823 423.891 903.251 422.321 903.251 420.268C903.251 418.097 903.94 416.425 905.319 415.252C906.697 414.049 908.765 413.448 911.523 413.448H913.195C915.512 413.448 917.375 413.991 918.783 415.076C920.191 416.161 921.041 417.628 921.335 419.476H917.375C917.199 418.713 916.759 418.112 916.055 417.672C915.351 417.203 914.397 416.968 913.195 416.968H911.523C910.027 416.968 908.927 417.247 908.223 417.804C907.548 418.361 907.211 419.197 907.211 420.312C907.211 421.309 907.504 422.043 908.091 422.512C908.677 422.981 909.601 423.319 910.863 423.524L914.119 424.052C916.729 424.463 918.621 425.225 919.795 426.34C920.997 427.455 921.599 429.068 921.599 431.18C921.599 433.409 920.88 435.169 919.443 436.46C918.035 437.721 915.893 438.352 913.019 438.352H911.171ZM938.302 438.44C936.395 438.44 934.723 438.059 933.286 437.296C931.878 436.533 930.778 435.463 929.986 434.084C929.223 432.676 928.842 431.048 928.842 429.2V422.6C928.842 420.723 929.223 419.095 929.986 417.716C930.778 416.337 931.878 415.267 933.286 414.504C934.723 413.741 936.395 413.36 938.302 413.36C940.208 413.36 941.866 413.741 943.274 414.504C944.711 415.267 945.811 416.337 946.574 417.716C947.366 419.095 947.762 420.723 947.762 422.6V426.868H932.714V429.2C932.714 431.107 933.198 432.573 934.166 433.6C935.134 434.597 936.512 435.096 938.302 435.096C939.827 435.096 941.059 434.832 941.998 434.304C942.936 433.747 943.508 432.925 943.714 431.84H947.674C947.41 433.864 946.412 435.477 944.682 436.68C942.98 437.853 940.854 438.44 938.302 438.44ZM943.89 424.228V422.6C943.89 420.693 943.406 419.227 942.438 418.2C941.499 417.173 940.12 416.66 938.302 416.66C936.512 416.66 935.134 417.173 934.166 418.2C933.198 419.227 932.714 420.693 932.714 422.6V423.876H944.198L943.89 424.228ZM964.86 438.44C962.924 438.44 961.223 438.073 959.756 437.34C958.319 436.607 957.204 435.551 956.412 434.172C955.62 432.764 955.224 431.107 955.224 429.2V422.6C955.224 420.664 955.62 419.007 956.412 417.628C957.204 416.249 958.319 415.193 959.756 414.46C961.223 413.727 962.924 413.36 964.86 413.36C967.647 413.36 969.891 414.108 971.592 415.604C973.294 417.1 974.188 419.139 974.276 421.72H970.316C970.228 420.165 969.7 418.977 968.732 418.156C967.794 417.305 966.503 416.88 964.86 416.88C963.13 416.88 961.751 417.379 960.724 418.376C959.698 419.344 959.184 420.737 959.184 422.556V429.2C959.184 431.019 959.698 432.427 960.724 433.424C961.751 434.421 963.13 434.92 964.86 434.92C966.503 434.92 967.794 434.495 968.732 433.644C969.7 432.793 970.228 431.605 970.316 430.08H974.276C974.188 432.661 973.294 434.7 971.592 436.196C969.891 437.692 967.647 438.44 964.86 438.44ZM991.067 438.352C989.131 438.352 987.459 437.985 986.051 437.252C984.643 436.519 983.543 435.463 982.751 434.084C981.989 432.676 981.607 431.019 981.607 429.112V422.688C981.607 420.752 981.989 419.095 982.751 417.716C983.543 416.337 984.643 415.281 986.051 414.548C987.459 413.815 989.131 413.448 991.067 413.448C993.003 413.448 994.675 413.815 996.083 414.548C997.491 415.281 998.577 416.337 999.339 417.716C1000.13 419.095 1000.53 420.737 1000.53 422.644V429.112C1000.53 431.019 1000.13 432.676 999.339 434.084C998.577 435.463 997.491 436.519 996.083 437.252C994.675 437.985 993.003 438.352 991.067 438.352ZM991.067 434.832C992.798 434.832 994.147 434.348 995.115 433.38C996.083 432.412 996.567 430.989 996.567 429.112V422.688C996.567 420.811 996.083 419.388 995.115 418.42C994.147 417.452 992.798 416.968 991.067 416.968C989.366 416.968 988.017 417.452 987.019 418.42C986.051 419.388 985.567 420.811 985.567 422.688V429.112C985.567 430.989 986.051 432.412 987.019 433.38C988.017 434.348 989.366 434.832 991.067 434.832ZM1008.3 438V413.8H1012.26V418.42H1013.09L1012.26 419.344C1012.26 417.437 1012.83 415.971 1013.97 414.944C1015.12 413.888 1016.7 413.36 1018.73 413.36C1021.16 413.36 1023.1 414.108 1024.53 415.604C1025.97 417.1 1026.69 419.139 1026.69 421.72V438H1022.73V422.16C1022.73 420.429 1022.26 419.109 1021.32 418.2C1020.41 417.261 1019.17 416.792 1017.58 416.792C1015.94 416.792 1014.63 417.291 1013.67 418.288C1012.73 419.285 1012.26 420.723 1012.26 422.6V438H1008.3ZM1042.42 438.44C1040.02 438.44 1038.07 437.633 1036.57 436.02C1035.11 434.407 1034.37 432.221 1034.37 429.464V422.38C1034.37 419.593 1035.11 417.393 1036.57 415.78C1038.04 414.167 1039.99 413.36 1042.42 413.36C1044.42 413.36 1046.02 413.903 1047.22 414.988C1048.42 416.073 1049.02 417.525 1049.02 419.344L1048.23 418.42H1049.11L1049.02 412.92V405.88H1052.98V438H1049.02V433.38H1048.23L1049.02 432.456C1049.02 434.304 1048.42 435.771 1047.22 436.856C1046.02 437.912 1044.42 438.44 1042.42 438.44ZM1043.74 435.008C1045.39 435.008 1046.68 434.495 1047.62 433.468C1048.56 432.441 1049.02 431.019 1049.02 429.2V422.6C1049.02 420.781 1048.56 419.359 1047.62 418.332C1046.68 417.305 1045.39 416.792 1043.74 416.792C1042.07 416.792 1040.75 417.291 1039.78 418.288C1038.82 419.285 1038.33 420.723 1038.33 422.6V429.2C1038.33 431.077 1038.82 432.515 1039.78 433.512C1040.75 434.509 1042.07 435.008 1043.74 435.008ZM1070.88 417.54L1074.4 403.856H1080.12L1074.4 417.54H1070.88ZM1060.76 417.54L1064.28 403.856H1070L1064.28 417.54H1060.76Z" fill="#44E61C"/>
<path d="M94.96 441V437.392H103.672V412.18L94.96 418.692V414.292L102.22 408.88H107.632V437.392H114.76V441H94.96Z" fill="#FF5151"/>
<circle cx="104" cy="425" r="38.5" stroke="#FF5151" stroke-width="3"/>
<line x1="1299.5" y1="460" x2="1299.5" y2="657" stroke="#FF5151" stroke-width="3"/>
<path d="M1509.06 658.061C1509.65 657.475 1509.65 656.525 1509.06 655.939L1499.51 646.393C1498.93 645.808 1497.98 645.808 1497.39 646.393C1496.81 646.979 1496.81 647.929 1497.39 648.515L1505.88 657L1497.39 665.485C1496.81 666.071 1496.81 667.021 1497.39 667.607C1497.98 668.192 1498.93 668.192 1499.51 667.607L1509.06 658.061ZM1298 658.5L1508 658.5L1508 655.5L1298 655.5L1298 658.5Z" fill="#FF5151"/>
<path d="M518.061 420.939C518.646 421.525 518.646 422.475 518.061 423.061L508.515 432.607C507.929 433.192 506.979 433.192 506.393 432.607C505.808 432.021 505.808 431.071 506.393 430.485L514.879 422L506.393 413.515C505.808 412.929 505.808 411.979 506.393 411.393C506.979 410.808 507.929 410.808 508.515 411.393L518.061 420.939ZM484 420.5L517 420.5L517 423.5L484 423.5L484 420.5Z" fill="#FF5151"/>
<rect x="563.5" y="383.5" width="827" height="77" rx="18.5" stroke="#FF5151" stroke-width="3"/>
<circle cx="1296" cy="510" r="38.5" fill="#1B1C1E" stroke="#FF5151" stroke-width="3"/>
<path d="M1287.05 526V521.952L1296.86 511.524C1298.53 509.735 1299.75 508.151 1300.51 506.772C1301.27 505.364 1301.66 504.015 1301.66 502.724C1301.66 500.935 1301.16 499.527 1300.16 498.5C1299.19 497.473 1297.86 496.96 1296.16 496.96C1294.28 496.96 1292.8 497.488 1291.71 498.544C1290.66 499.6 1290.13 501.052 1290.13 502.9H1286.17C1286.23 500.964 1286.67 499.292 1287.49 497.884C1288.34 496.447 1289.5 495.347 1290.96 494.584C1292.46 493.821 1294.19 493.44 1296.16 493.44C1298.09 493.44 1299.76 493.821 1301.17 494.584C1302.61 495.317 1303.71 496.373 1304.47 497.752C1305.23 499.131 1305.62 500.773 1305.62 502.68C1305.62 504.499 1305.13 506.303 1304.16 508.092C1303.2 509.881 1301.61 511.92 1299.41 514.208L1291.49 522.392H1306.14V526H1287.05Z" fill="#FF5151"/>
<path d="M171.792 689.44C169.387 689.44 167.436 688.633 165.94 687.02C164.473 685.407 163.74 683.221 163.74 680.464V673.38C163.74 670.593 164.473 668.393 165.94 666.78C167.407 665.167 169.357 664.36 171.792 664.36C173.787 664.36 175.385 664.903 176.588 665.988C177.791 667.073 178.392 668.525 178.392 670.344L177.6 669.42H178.48L178.392 663.92V656.88H182.352V689H178.392V684.38H177.6L178.392 683.456C178.392 685.304 177.791 686.771 176.588 687.856C175.385 688.912 173.787 689.44 171.792 689.44ZM173.112 686.008C174.755 686.008 176.045 685.495 176.984 684.468C177.923 683.441 178.392 682.019 178.392 680.2V673.6C178.392 671.781 177.923 670.359 176.984 669.332C176.045 668.305 174.755 667.792 173.112 667.792C171.44 667.792 170.12 668.291 169.152 669.288C168.184 670.285 167.7 671.723 167.7 673.6V680.2C167.7 682.077 168.184 683.515 169.152 684.512C170.12 685.509 171.44 686.008 173.112 686.008ZM199.583 689.44C197.676 689.44 196.004 689.059 194.567 688.296C193.159 687.533 192.059 686.463 191.267 685.084C190.504 683.676 190.123 682.048 190.123 680.2V673.6C190.123 671.723 190.504 670.095 191.267 668.716C192.059 667.337 193.159 666.267 194.567 665.504C196.004 664.741 197.676 664.36 199.583 664.36C201.489 664.36 203.147 664.741 204.555 665.504C205.992 666.267 207.092 667.337 207.855 668.716C208.647 670.095 209.043 671.723 209.043 673.6V677.868H193.995V680.2C193.995 682.107 194.479 683.573 195.447 684.6C196.415 685.597 197.793 686.096 199.583 686.096C201.108 686.096 202.34 685.832 203.279 685.304C204.217 684.747 204.789 683.925 204.995 682.84H208.955C208.691 684.864 207.693 686.477 205.963 687.68C204.261 688.853 202.135 689.44 199.583 689.44ZM205.171 675.228V673.6C205.171 671.693 204.687 670.227 203.719 669.2C202.78 668.173 201.401 667.66 199.583 667.66C197.793 667.66 196.415 668.173 195.447 669.2C194.479 670.227 193.995 671.693 193.995 673.6V674.876H205.479L205.171 675.228ZM229.266 689C227.858 689 226.626 688.721 225.57 688.164C224.514 687.607 223.692 686.815 223.106 685.788C222.519 684.761 222.226 683.559 222.226 682.18V660.488H214.086V656.88H226.186V682.18C226.186 683.177 226.464 683.969 227.022 684.556C227.579 685.113 228.327 685.392 229.266 685.392H236.966V689H229.266ZM252.348 689.44C250.442 689.44 248.77 689.059 247.332 688.296C245.924 687.533 244.824 686.463 244.032 685.084C243.27 683.676 242.888 682.048 242.888 680.2V673.6C242.888 671.723 243.27 670.095 244.032 668.716C244.824 667.337 245.924 666.267 247.332 665.504C248.77 664.741 250.442 664.36 252.348 664.36C254.255 664.36 255.912 664.741 257.32 665.504C258.758 666.267 259.858 667.337 260.62 668.716C261.412 670.095 261.808 671.723 261.808 673.6V677.868H246.76V680.2C246.76 682.107 247.244 683.573 248.212 684.6C249.18 685.597 250.559 686.096 252.348 686.096C253.874 686.096 255.106 685.832 256.044 685.304C256.983 684.747 257.555 683.925 257.76 682.84H261.72C261.456 684.864 260.459 686.477 258.728 687.68C257.027 688.853 254.9 689.44 252.348 689.44ZM257.936 675.228V673.6C257.936 671.693 257.452 670.227 256.484 669.2C255.546 668.173 254.167 667.66 252.348 667.66C250.559 667.66 249.18 668.173 248.212 669.2C247.244 670.227 246.76 671.693 246.76 673.6V674.876H258.244L257.936 675.228ZM281.371 689C279.289 689 277.661 688.443 276.487 687.328C275.343 686.213 274.771 684.644 274.771 682.62V668.408H267.951V664.8H274.771V657.98H278.731V664.8H288.411V668.408H278.731V682.62C278.731 684.468 279.611 685.392 281.371 685.392H287.971V689H281.371ZM305.114 689.44C303.207 689.44 301.535 689.059 300.098 688.296C298.69 687.533 297.59 686.463 296.798 685.084C296.035 683.676 295.654 682.048 295.654 680.2V673.6C295.654 671.723 296.035 670.095 296.798 668.716C297.59 667.337 298.69 666.267 300.098 665.504C301.535 664.741 303.207 664.36 305.114 664.36C307.021 664.36 308.678 664.741 310.086 665.504C311.523 666.267 312.623 667.337 313.386 668.716C314.178 670.095 314.574 671.723 314.574 673.6V677.868H299.526V680.2C299.526 682.107 300.01 683.573 300.978 684.6C301.946 685.597 303.325 686.096 305.114 686.096C306.639 686.096 307.871 685.832 308.81 685.304C309.749 684.747 310.321 683.925 310.526 682.84H314.486C314.222 684.864 313.225 686.477 311.494 687.68C309.793 688.853 307.666 689.44 305.114 689.44ZM310.702 675.228V673.6C310.702 671.693 310.218 670.227 309.25 669.2C308.311 668.173 306.933 667.66 305.114 667.66C303.325 667.66 301.946 668.173 300.978 669.2C300.01 670.227 299.526 671.693 299.526 673.6V674.876H311.01L310.702 675.228ZM339.637 694.28C335.472 693.253 332.23 691.229 329.913 688.208C327.596 685.187 326.437 681.491 326.437 677.12V669.2C326.437 666.325 326.965 663.729 328.021 661.412C329.106 659.065 330.632 657.085 332.597 655.472C334.592 653.859 336.938 652.715 339.637 652.04V655.78C337.76 656.22 336.132 657.071 334.753 658.332C333.374 659.564 332.304 661.104 331.541 662.952C330.778 664.8 330.397 666.883 330.397 669.2V677.12C330.397 679.379 330.764 681.432 331.497 683.28C332.26 685.128 333.33 686.668 334.709 687.9C336.117 689.103 337.76 689.924 339.637 690.364V694.28ZM349.74 694.28V690.364C351.646 689.924 353.289 689.103 354.668 687.9C356.046 686.668 357.102 685.128 357.836 683.28C358.598 681.432 358.98 679.379 358.98 677.12V669.2C358.98 666.883 358.598 664.8 357.836 662.952C357.073 661.104 356.002 659.564 354.624 658.332C353.245 657.071 351.617 656.22 349.74 655.78V652.04C352.468 652.715 354.814 653.859 356.78 655.472C358.745 657.085 360.256 659.065 361.312 661.412C362.397 663.729 362.94 666.325 362.94 669.2V677.12C362.94 681.491 361.781 685.187 359.464 688.208C357.146 691.229 353.905 693.253 349.74 694.28ZM485.614 693.84V652.48H496.394V656H489.574V690.32H496.394V693.84H485.614ZM747.022 693.84V690.32H753.842V656H747.022V652.48H757.802V693.84H747.022Z" fill="#FF5151"/>
<path d="M542.779 668.54L548.499 654.856H552.019L548.499 668.54H542.779ZM532.659 668.54L538.379 654.856H541.899L538.379 668.54H532.659ZM565.422 689V670.828H558.382V667.22H565.422V663.04C565.422 661.133 566.024 659.637 567.226 658.552C568.429 657.437 570.086 656.88 572.198 656.88H579.282V660.488H572.198C571.289 660.488 570.585 660.708 570.086 661.148C569.617 661.559 569.382 662.189 569.382 663.04V667.22H579.282V670.828H569.382V689H565.422ZM585.865 689V685.392H594.445V668.408H586.965V664.8H598.405V685.392H606.545V689H585.865ZM595.985 660.444C595.017 660.444 594.254 660.195 593.697 659.696C593.14 659.197 592.861 658.523 592.861 657.672C592.861 656.792 593.14 656.103 593.697 655.604C594.254 655.076 595.017 654.812 595.985 654.812C596.953 654.812 597.716 655.076 598.273 655.604C598.83 656.103 599.109 656.792 599.109 657.672C599.109 658.523 598.83 659.197 598.273 659.696C597.716 660.195 596.953 660.444 595.985 660.444ZM613.392 689V664.8H617.264V669.42H618.188L616.912 672.28C616.912 669.669 617.469 667.704 618.584 666.384C619.728 665.035 621.414 664.36 623.644 664.36C626.196 664.36 628.22 665.167 629.716 666.78C631.241 668.364 632.004 670.52 632.004 673.248V674.7H628.044V673.6C628.044 671.693 627.574 670.241 626.636 669.244C625.726 668.217 624.421 667.704 622.72 667.704C621.048 667.704 619.728 668.217 618.76 669.244C617.821 670.271 617.352 671.723 617.352 673.6V689H613.392ZM647.343 689.352C645.7 689.352 644.263 689.103 643.031 688.604C641.828 688.076 640.86 687.343 640.127 686.404C639.423 685.465 638.997 684.351 638.851 683.06H642.811C642.987 683.911 643.456 684.585 644.219 685.084C645.011 685.583 646.052 685.832 647.343 685.832H649.191C650.745 685.832 651.904 685.524 652.667 684.908C653.429 684.263 653.811 683.412 653.811 682.356C653.811 681.329 653.459 680.523 652.755 679.936C652.08 679.32 651.068 678.909 649.719 678.704L646.463 678.176C644.087 677.765 642.312 677.032 641.139 675.976C639.995 674.891 639.423 673.321 639.423 671.268C639.423 669.097 640.112 667.425 641.491 666.252C642.869 665.049 644.937 664.448 647.695 664.448H649.367C651.684 664.448 653.547 664.991 654.955 666.076C656.363 667.161 657.213 668.628 657.507 670.476H653.547C653.371 669.713 652.931 669.112 652.227 668.672C651.523 668.203 650.569 667.968 649.367 667.968H647.695C646.199 667.968 645.099 668.247 644.395 668.804C643.72 669.361 643.383 670.197 643.383 671.312C643.383 672.309 643.676 673.043 644.263 673.512C644.849 673.981 645.773 674.319 647.035 674.524L650.291 675.052C652.901 675.463 654.793 676.225 655.967 677.34C657.169 678.455 657.771 680.068 657.771 682.18C657.771 684.409 657.052 686.169 655.615 687.46C654.207 688.721 652.065 689.352 649.191 689.352H647.343ZM677.113 689C675.031 689 673.403 688.443 672.229 687.328C671.085 686.213 670.513 684.644 670.513 682.62V668.408H663.693V664.8H670.513V657.98H674.473V664.8H684.153V668.408H674.473V682.62C674.473 684.468 675.353 685.392 677.113 685.392H683.713V689H677.113ZM701.516 668.54L705.036 654.856H710.756L705.036 668.54H701.516ZM691.396 668.54L694.916 654.856H700.636L694.916 668.54H691.396Z" fill="#44E61C"/>
<path d="M418.061 671.939C418.646 672.525 418.646 673.475 418.061 674.061L408.515 683.607C407.929 684.192 406.979 684.192 406.393 683.607C405.808 683.021 405.808 682.071 406.393 681.485L414.879 673L406.393 664.515C405.808 663.929 405.808 662.979 406.393 662.393C406.979 661.808 407.929 661.808 408.515 662.393L418.061 671.939ZM384 671.5L417 671.5L417 674.5L384 674.5L384 671.5Z" fill="#FF5151"/>
<rect x="460.5" y="634.5" width="322" height="77" rx="18.5" stroke="#FF5151" stroke-width="3"/>
<path d="M94.96 689V685.392H103.672V660.18L94.96 666.692V662.292L102.22 656.88H107.632V685.392H114.76V689H94.96Z" fill="#FF5151"/>
<circle cx="104" cy="673" r="38.5" stroke="#FF5151" stroke-width="3"/>
<path d="M1530.06 674.061C1530.65 673.475 1530.65 672.525 1530.06 671.939L1520.51 662.393C1519.93 661.808 1518.98 661.808 1518.39 662.393C1517.81 662.979 1517.81 663.929 1518.39 664.515L1526.88 673L1518.39 681.485C1517.81 682.071 1517.81 683.021 1518.39 683.607C1518.98 684.192 1519.93 684.192 1520.51 683.607L1530.06 674.061ZM784 674.5L1529 674.5L1529 671.5L784 671.5L784 674.5Z" fill="#FF5151"/>
<circle cx="832" cy="672" r="38.5" fill="#1B1C1E" stroke="#FF5151" stroke-width="3"/>
<path d="M823.048 688V683.952L832.86 673.524C834.532 671.735 835.749 670.151 836.512 668.772C837.275 667.364 837.656 666.015 837.656 664.724C837.656 662.935 837.157 661.527 836.16 660.5C835.192 659.473 833.857 658.96 832.156 658.96C830.279 658.96 828.797 659.488 827.712 660.544C826.656 661.6 826.128 663.052 826.128 664.9H822.168C822.227 662.964 822.667 661.292 823.488 659.884C824.339 658.447 825.497 657.347 826.964 656.584C828.46 655.821 830.191 655.44 832.156 655.44C834.092 655.44 835.764 655.821 837.172 656.584C838.609 657.317 839.709 658.373 840.472 659.752C841.235 661.131 841.616 662.773 841.616 664.68C841.616 666.499 841.132 668.303 840.164 670.092C839.196 671.881 837.612 673.92 835.412 676.208L827.492 684.392H842.144V688H823.048Z" fill="#FF5151"/>
<path d="M172.2 930.44C170.293 930.44 168.621 930.059 167.184 929.296C165.776 928.533 164.676 927.463 163.884 926.084C163.121 924.676 162.74 923.048 162.74 921.2V914.6C162.74 912.723 163.121 911.095 163.884 909.716C164.676 908.337 165.776 907.267 167.184 906.504C168.621 905.741 170.293 905.36 172.2 905.36C174.107 905.36 175.764 905.741 177.172 906.504C178.609 907.267 179.709 908.337 180.472 909.716C181.264 911.095 181.66 912.723 181.66 914.6V918.868H166.612V921.2C166.612 923.107 167.096 924.573 168.064 925.6C169.032 926.597 170.411 927.096 172.2 927.096C173.725 927.096 174.957 926.832 175.896 926.304C176.835 925.747 177.407 924.925 177.612 923.84H181.572C181.308 925.864 180.311 927.477 178.58 928.68C176.879 929.853 174.752 930.44 172.2 930.44ZM177.788 916.228V914.6C177.788 912.693 177.304 911.227 176.336 910.2C175.397 909.173 174.019 908.66 172.2 908.66C170.411 908.66 169.032 909.173 168.064 910.2C167.096 911.227 166.612 912.693 166.612 914.6V915.876H178.096L177.788 916.228ZM197.175 930.44C194.769 930.44 192.819 929.633 191.323 928.02C189.856 926.407 189.123 924.221 189.123 921.464V914.38C189.123 911.593 189.856 909.393 191.323 907.78C192.789 906.167 194.74 905.36 197.175 905.36C199.169 905.36 200.768 905.903 201.971 906.988C203.173 908.073 203.775 909.525 203.775 911.344L202.983 910.42H203.863L203.775 904.92V897.88H207.735V930H203.775V925.38H202.983L203.775 924.456C203.775 926.304 203.173 927.771 201.971 928.856C200.768 929.912 199.169 930.44 197.175 930.44ZM198.495 927.008C200.137 927.008 201.428 926.495 202.367 925.468C203.305 924.441 203.775 923.019 203.775 921.2V914.6C203.775 912.781 203.305 911.359 202.367 910.332C201.428 909.305 200.137 908.792 198.495 908.792C196.823 908.792 195.503 909.291 194.535 910.288C193.567 911.285 193.083 912.723 193.083 914.6V921.2C193.083 923.077 193.567 924.515 194.535 925.512C195.503 926.509 196.823 927.008 198.495 927.008ZM215.506 930V926.392H224.086V909.408H216.606V905.8H228.046V926.392H236.186V930H215.506ZM225.626 901.444C224.658 901.444 223.895 901.195 223.338 900.696C222.78 900.197 222.502 899.523 222.502 898.672C222.502 897.792 222.78 897.103 223.338 896.604C223.895 896.076 224.658 895.812 225.626 895.812C226.594 895.812 227.356 896.076 227.914 896.604C228.471 897.103 228.75 897.792 228.75 898.672C228.75 899.523 228.471 900.197 227.914 900.696C227.356 901.195 226.594 901.444 225.626 901.444ZM253.988 930C251.906 930 250.278 929.443 249.104 928.328C247.96 927.213 247.388 925.644 247.388 923.62V909.408H240.568V905.8H247.388V898.98H251.348V905.8H261.028V909.408H251.348V923.62C251.348 925.468 252.228 926.392 253.988 926.392H260.588V930H253.988ZM285.871 935.28C281.706 934.253 278.465 932.229 276.147 929.208C273.83 926.187 272.671 922.491 272.671 918.12V910.2C272.671 907.325 273.199 904.729 274.255 902.412C275.341 900.065 276.866 898.085 278.831 896.472C280.826 894.859 283.173 893.715 285.871 893.04V896.78C283.994 897.22 282.366 898.071 280.987 899.332C279.609 900.564 278.538 902.104 277.775 903.952C277.013 905.8 276.631 907.883 276.631 910.2V918.12C276.631 920.379 276.998 922.432 277.731 924.28C278.494 926.128 279.565 927.668 280.943 928.9C282.351 930.103 283.994 930.924 285.871 931.364V935.28ZM304.334 909.54L310.054 895.856H313.574L310.054 909.54H304.334ZM294.214 909.54L299.934 895.856H303.454L299.934 909.54H294.214ZM329.749 930.352C328.106 930.352 326.669 930.103 325.437 929.604C324.234 929.076 323.266 928.343 322.533 927.404C321.829 926.465 321.404 925.351 321.257 924.06H325.217C325.393 924.911 325.862 925.585 326.625 926.084C327.417 926.583 328.458 926.832 329.749 926.832H331.597C333.152 926.832 334.31 926.524 335.073 925.908C335.836 925.263 336.217 924.412 336.217 923.356C336.217 922.329 335.865 921.523 335.161 920.936C334.486 920.32 333.474 919.909 332.125 919.704L328.869 919.176C326.493 918.765 324.718 918.032 323.545 916.976C322.401 915.891 321.829 914.321 321.829 912.268C321.829 910.097 322.518 908.425 323.897 907.252C325.276 906.049 327.344 905.448 330.101 905.448H331.773C334.09 905.448 335.953 905.991 337.361 907.076C338.769 908.161 339.62 909.628 339.913 911.476H335.953C335.777 910.713 335.337 910.112 334.633 909.672C333.929 909.203 332.976 908.968 331.773 908.968H330.101C328.605 908.968 327.505 909.247 326.801 909.804C326.126 910.361 325.789 911.197 325.789 912.312C325.789 913.309 326.082 914.043 326.669 914.512C327.256 914.981 328.18 915.319 329.441 915.524L332.697 916.052C335.308 916.463 337.2 917.225 338.373 918.34C339.576 919.455 340.177 921.068 340.177 923.18C340.177 925.409 339.458 927.169 338.021 928.46C336.613 929.721 334.472 930.352 331.597 930.352H329.749ZM347.42 930V926.392H356V909.408H348.52V905.8H359.96V926.392H368.1V930H347.42ZM357.54 901.444C356.572 901.444 355.809 901.195 355.252 900.696C354.694 900.197 354.416 899.523 354.416 898.672C354.416 897.792 354.694 897.103 355.252 896.604C355.809 896.076 356.572 895.812 357.54 895.812C358.508 895.812 359.27 896.076 359.828 896.604C360.385 897.103 360.664 897.792 360.664 898.672C360.664 899.523 360.385 900.197 359.828 900.696C359.27 901.195 358.508 901.444 357.54 901.444ZM372.263 930L380.843 917.548L372.791 905.8H377.455L382.251 913.28C382.456 913.603 382.647 913.955 382.823 914.336C383.028 914.717 383.189 915.025 383.307 915.26C383.395 915.025 383.527 914.717 383.703 914.336C383.908 913.955 384.113 913.603 384.319 913.28L389.159 905.8H393.779L385.727 917.592L394.263 930H389.599L384.407 922.08C384.201 921.757 383.996 921.391 383.791 920.98C383.615 920.54 383.453 920.188 383.307 919.924C383.189 920.188 383.013 920.54 382.779 920.98C382.573 921.391 382.353 921.757 382.119 922.08L376.883 930H372.263ZM412.285 930C410.203 930 408.575 929.443 407.401 928.328C406.257 927.213 405.685 925.644 405.685 923.62V909.408H398.865V905.8H405.685V898.98H409.645V905.8H419.325V909.408H409.645V923.62C409.645 925.468 410.525 926.392 412.285 926.392H418.885V930H412.285ZM426.876 930V897.88H430.836V905.8V910.42H431.672L430.836 911.344C430.836 909.437 431.408 907.971 432.552 906.944C433.696 905.888 435.28 905.36 437.304 905.36C439.739 905.36 441.675 906.108 443.112 907.604C444.549 909.1 445.268 911.139 445.268 913.72V930H441.308V914.16C441.308 912.429 440.839 911.095 439.9 910.156C438.991 909.188 437.744 908.704 436.16 908.704C434.517 908.704 433.212 909.217 432.244 910.244C431.305 911.271 430.836 912.723 430.836 914.6V930H426.876ZM463.071 909.54L466.591 895.856H472.311L466.591 909.54H463.071ZM452.951 909.54L456.471 895.856H462.191L456.471 909.54H452.951ZM480.654 935.28V931.364C482.56 930.924 484.203 930.103 485.582 928.9C486.96 927.668 488.016 926.128 488.75 924.28C489.512 922.432 489.894 920.379 489.894 918.12V910.2C489.894 907.883 489.512 905.8 488.75 903.952C487.987 902.104 486.916 900.564 485.538 899.332C484.159 898.071 482.531 897.22 480.654 896.78V893.04C483.382 893.715 485.728 894.859 487.694 896.472C489.659 898.085 491.17 900.065 492.226 902.412C493.311 904.729 493.854 907.325 493.854 910.2V918.12C493.854 922.491 492.695 926.187 490.378 929.208C488.06 932.229 484.819 934.253 480.654 935.28ZM616.528 934.84V893.48H627.308V897H620.488V931.32H627.308V934.84H616.528ZM852.213 937.04L855.733 923.356H861.453L855.733 937.04H852.213ZM911.139 909.54L916.859 895.856H920.379L916.859 909.54H911.139ZM901.019 909.54L906.739 895.856H910.259L906.739 909.54H901.019ZM939.942 930C937.859 930 936.231 929.443 935.058 928.328C933.914 927.213 933.342 925.644 933.342 923.62V909.408H926.522V905.8H933.342V898.98H937.302V905.8H946.982V909.408H937.302V923.62C937.302 925.468 938.182 926.392 939.942 926.392H946.542V930H939.942ZM954.532 930V897.88H958.492V905.8V910.42H959.328L958.492 911.344C958.492 909.437 959.064 907.971 960.208 906.944C961.352 905.888 962.936 905.36 964.96 905.36C967.395 905.36 969.331 906.108 970.768 907.604C972.206 909.1 972.924 911.139 972.924 913.72V930H968.964V914.16C968.964 912.429 968.495 911.095 967.556 910.156C966.647 909.188 965.4 908.704 963.816 908.704C962.174 908.704 960.868 909.217 959.9 910.244C958.962 911.271 958.492 912.723 958.492 914.6V930H954.532ZM980.607 930V926.392H989.187V909.408H981.707V905.8H993.147V926.392H1001.29V930H980.607ZM990.727 901.444C989.759 901.444 988.997 901.195 988.439 900.696C987.882 900.197 987.603 899.523 987.603 898.672C987.603 897.792 987.882 897.103 988.439 896.604C988.997 896.076 989.759 895.812 990.727 895.812C991.695 895.812 992.458 896.076 993.015 896.604C993.573 897.103 993.851 897.792 993.851 898.672C993.851 899.523 993.573 900.197 993.015 900.696C992.458 901.195 991.695 901.444 990.727 901.444ZM1008.13 930V905.8H1012.01V910.42H1012.93L1011.65 913.28C1011.65 910.669 1012.21 908.704 1013.33 907.384C1014.47 906.035 1016.16 905.36 1018.39 905.36C1020.94 905.36 1022.96 906.167 1024.46 907.78C1025.98 909.364 1026.75 911.52 1026.75 914.248V915.7H1022.79V914.6C1022.79 912.693 1022.32 911.241 1021.38 910.244C1020.47 909.217 1019.16 908.704 1017.46 908.704C1015.79 908.704 1014.47 909.217 1013.5 910.244C1012.56 911.271 1012.09 912.723 1012.09 914.6V930H1008.13ZM1041.42 930.44C1039.02 930.44 1037.07 929.633 1035.57 928.02C1034.11 926.407 1033.37 924.221 1033.37 921.464V914.38C1033.37 911.593 1034.11 909.393 1035.57 907.78C1037.04 906.167 1038.99 905.36 1041.42 905.36C1043.42 905.36 1045.02 905.903 1046.22 906.988C1047.42 908.073 1048.02 909.525 1048.02 911.344L1047.23 910.42H1048.11L1048.02 904.92V897.88H1051.98V930H1048.02V925.38H1047.23L1048.02 924.456C1048.02 926.304 1047.42 927.771 1046.22 928.856C1045.02 929.912 1043.42 930.44 1041.42 930.44ZM1042.74 927.008C1044.39 927.008 1045.68 926.495 1046.62 925.468C1047.56 924.441 1048.02 923.019 1048.02 921.2V914.6C1048.02 912.781 1047.56 911.359 1046.62 910.332C1045.68 909.305 1044.39 908.792 1042.74 908.792C1041.07 908.792 1039.75 909.291 1038.78 910.288C1037.82 911.285 1037.33 912.723 1037.33 914.6V921.2C1037.33 923.077 1037.82 924.515 1038.78 925.512C1039.75 926.509 1041.07 927.008 1042.74 927.008ZM1069.88 909.54L1073.4 895.856H1079.12L1073.4 909.54H1069.88ZM1059.76 909.54L1063.28 895.856H1069L1063.28 909.54H1059.76ZM1115.38 934.84V931.32H1122.2V897H1115.38V893.48H1126.16V934.84H1115.38Z" fill="#FF5151"/>
<path d="M673.693 909.54L679.413 895.856H682.933L679.413 909.54H673.693ZM663.573 909.54L669.293 895.856H672.813L669.293 909.54H663.573ZM696.336 930V911.828H689.296V908.22H696.336V904.04C696.336 902.133 696.938 900.637 698.14 899.552C699.343 898.437 701 897.88 703.112 897.88H710.196V901.488H703.112C702.203 901.488 701.499 901.708 701 902.148C700.531 902.559 700.296 903.189 700.296 904.04V908.22H710.196V911.828H700.296V930H696.336ZM716.779 930V926.392H725.359V909.408H717.879V905.8H729.319V926.392H737.459V930H716.779ZM726.899 901.444C725.931 901.444 725.168 901.195 724.611 900.696C724.054 900.197 723.775 899.523 723.775 898.672C723.775 897.792 724.054 897.103 724.611 896.604C725.168 896.076 725.931 895.812 726.899 895.812C727.867 895.812 728.63 896.076 729.187 896.604C729.744 897.103 730.023 897.792 730.023 898.672C730.023 899.523 729.744 900.197 729.187 900.696C728.63 901.195 727.867 901.444 726.899 901.444ZM744.306 930V905.8H748.178V910.42H749.102L747.826 913.28C747.826 910.669 748.383 908.704 749.498 907.384C750.642 906.035 752.329 905.36 754.558 905.36C757.11 905.36 759.134 906.167 760.63 907.78C762.155 909.364 762.918 911.52 762.918 914.248V915.7H758.958V914.6C758.958 912.693 758.489 911.241 757.55 910.244C756.641 909.217 755.335 908.704 753.634 908.704C751.962 908.704 750.642 909.217 749.674 910.244C748.735 911.271 748.266 912.723 748.266 914.6V930H744.306ZM778.257 930.352C776.614 930.352 775.177 930.103 773.945 929.604C772.742 929.076 771.774 928.343 771.041 927.404C770.337 926.465 769.911 925.351 769.765 924.06H773.725C773.901 924.911 774.37 925.585 775.133 926.084C775.925 926.583 776.966 926.832 778.257 926.832H780.105C781.659 926.832 782.818 926.524 783.581 925.908C784.343 925.263 784.725 924.412 784.725 923.356C784.725 922.329 784.373 921.523 783.669 920.936C782.994 920.32 781.982 919.909 780.633 919.704L777.377 919.176C775.001 918.765 773.226 918.032 772.053 916.976C770.909 915.891 770.337 914.321 770.337 912.268C770.337 910.097 771.026 908.425 772.405 907.252C773.783 906.049 775.851 905.448 778.609 905.448H780.281C782.598 905.448 784.461 905.991 785.869 907.076C787.277 908.161 788.127 909.628 788.421 911.476H784.461C784.285 910.713 783.845 910.112 783.141 909.672C782.437 909.203 781.483 908.968 780.281 908.968H778.609C777.113 908.968 776.013 909.247 775.309 909.804C774.634 910.361 774.297 911.197 774.297 912.312C774.297 913.309 774.59 914.043 775.177 914.512C775.763 914.981 776.687 915.319 777.949 915.524L781.205 916.052C783.815 916.463 785.707 917.225 786.881 918.34C788.083 919.455 788.685 921.068 788.685 923.18C788.685 925.409 787.966 927.169 786.529 928.46C785.121 929.721 782.979 930.352 780.105 930.352H778.257ZM808.028 930C805.945 930 804.317 929.443 803.144 928.328C802 927.213 801.428 925.644 801.428 923.62V909.408H794.608V905.8H801.428V898.98H805.388V905.8H815.068V909.408H805.388V923.62C805.388 925.468 806.268 926.392 808.028 926.392H814.628V930H808.028ZM832.43 909.54L835.95 895.856H841.67L835.95 909.54H832.43ZM822.31 909.54L825.83 895.856H831.55L825.83 909.54H822.31Z" fill="#44E61C"/>
<path d="M546.061 912.939C546.646 913.525 546.646 914.475 546.061 915.061L536.515 924.607C535.929 925.192 534.979 925.192 534.393 924.607C533.808 924.021 533.808 923.071 534.393 922.485L542.879 914L534.393 905.515C533.808 904.929 533.808 903.979 534.393 903.393C534.979 902.808 535.929 902.808 536.515 903.393L546.061 912.939ZM512 912.5L545 912.5L545 915.5L512 915.5L512 912.5Z" fill="#FF5151"/>
<rect x="594.5" y="875.5" width="554" height="77" rx="18.5" stroke="#FF5151" stroke-width="3"/>
<path d="M93.96 930V926.392H102.672V901.18L93.96 907.692V903.292L101.22 897.88H106.632V926.392H113.76V930H93.96Z" fill="#FF5151"/>
<circle cx="103" cy="914" r="38.5" stroke="#FF5151" stroke-width="3"/>
<line x1="1299.5" y1="695" x2="1299.5" y2="917" stroke="#FF5151" stroke-width="3"/>
<line x1="1299" y1="915.5" x2="1150" y2="915.5" stroke="#FF5151" stroke-width="3"/>
<circle cx="1197" cy="914" r="38.5" fill="#1B1C1E" stroke="#FF5151" stroke-width="3"/>
<path d="M1188.05 930V925.952L1197.86 915.524C1199.53 913.735 1200.75 912.151 1201.51 910.772C1202.27 909.364 1202.66 908.015 1202.66 906.724C1202.66 904.935 1202.16 903.527 1201.16 902.5C1200.19 901.473 1198.86 900.96 1197.16 900.96C1195.28 900.96 1193.8 901.488 1192.71 902.544C1191.66 903.6 1191.13 905.052 1191.13 906.9H1187.17C1187.23 904.964 1187.67 903.292 1188.49 901.884C1189.34 900.447 1190.5 899.347 1191.96 898.584C1193.46 897.821 1195.19 897.44 1197.16 897.44C1199.09 897.44 1200.76 897.821 1202.17 898.584C1203.61 899.317 1204.71 900.373 1205.47 901.752C1206.23 903.131 1206.62 904.773 1206.62 906.68C1206.62 908.499 1206.13 910.303 1205.16 912.092C1204.2 913.881 1202.61 915.92 1200.41 918.208L1192.49 926.392H1207.14V930H1188.05Z" fill="#FF5151"/>
<path d="M1509.06 693.061C1509.65 692.475 1509.65 691.525 1509.06 690.939L1499.51 681.393C1498.93 680.808 1497.98 680.808 1497.39 681.393C1496.81 681.979 1496.81 682.929 1497.39 683.515L1505.88 692L1497.39 700.485C1496.81 701.071 1496.81 702.021 1497.39 702.607C1497.98 703.192 1498.93 703.192 1499.51 702.607L1509.06 693.061ZM1298 693.5L1508 693.5L1508 690.5L1298 690.5L1298 693.5Z" fill="#FF5151"/>
</svg>
